<?xml version="1.0" encoding="UTF-8" standalone="no"?>
<svg
   xmlns:dc="http://purl.org/dc/elements/1.1/"
   xmlns:cc="http://creativecommons.org/ns#"
   xmlns:rdf="http://www.w3.org/1999/02/22-rdf-syntax-ns#"
   xmlns:svg="http://www.w3.org/2000/svg"
   xmlns="http://www.w3.org/2000/svg"
   xmlns:sodipodi="http://sodipodi.sourceforge.net/DTD/sodipodi-0.dtd"
   xmlns:inkscape="http://www.inkscape.org/namespaces/inkscape"
   id="svg8"
   version="1.1"
   viewBox="0 0 83.67009 75.549233"
   height="75.549232mm"
   width="83.67009mm"
   sodipodi:docname="Dirección de un vector.svg"
   inkscape:version="1.0.1 (3bc2e813f5, 2020-09-07)">
  <defs
     id="defs2">
    <marker
       style="overflow:visible"
       id="Arrow1Lend"
       refX="0"
       refY="0"
       orient="auto"
       inkscape:stockid="Arrow1Lend"
       inkscape:isstock="true">
      <path
         transform="matrix(-0.8,0,0,-0.8,-10,0)"
         style="fill:#000000;fill-opacity:1;fill-rule:evenodd;stroke:#000000;stroke-width:1pt;stroke-opacity:1"
         d="M 0,0 5,-5 -12.5,0 5,5 Z"
         id="path11100" />
    </marker>
    <marker
       style="overflow:visible"
       id="marker10933"
       refX="0"
       refY="0"
       orient="auto"
       inkscape:stockid="Arrow2Mstart"
       inkscape:isstock="true">
      <path
         transform="scale(0.6)"
         d="M 8.7185878,4.0337352 -2.2072895,0.01601326 8.7185884,-4.0017078 c -1.7454984,2.3720609 -1.7354408,5.6174519 -6e-7,8.035443 z"
         style="fill:#000000;fill-opacity:1;fill-rule:evenodd;stroke:#000000;stroke-width:0.625;stroke-linejoin:round;stroke-opacity:1"
         id="path10931" />
    </marker>
    <marker
       style="overflow:visible"
       id="marker3155"
       refX="0"
       refY="0"
       orient="auto"
       inkscape:stockid="Arrow2Mstart"
       inkscape:isstock="true"
       inkscape:collect="always">
      <path
         transform="scale(0.6)"
         d="M 8.7185878,4.0337352 -2.2072895,0.01601326 8.7185884,-4.0017078 c -1.7454984,2.3720609 -1.7354408,5.6174519 -6e-7,8.035443 z"
         style="fill:#000000;fill-opacity:1;fill-rule:evenodd;stroke:#000000;stroke-width:0.625;stroke-linejoin:round;stroke-opacity:1"
         id="path3153" />
    </marker>
    <marker
       style="overflow:visible"
       id="marker1609"
       refX="0"
       refY="0"
       orient="auto"
       inkscape:stockid="Arrow2Mstart"
       inkscape:isstock="true"
       inkscape:collect="always">
      <path
         transform="scale(0.6)"
         d="M 8.7185878,4.0337352 -2.2072895,0.01601326 8.7185884,-4.0017078 c -1.7454984,2.3720609 -1.7354408,5.6174519 -6e-7,8.035443 z"
         style="fill:#000000;fill-opacity:1;fill-rule:evenodd;stroke:#000000;stroke-width:0.625;stroke-linejoin:round;stroke-opacity:1"
         id="path1607" />
    </marker>
    <marker
       style="overflow:visible"
       id="Arrow2Mstart"
       refX="0"
       refY="0"
       orient="auto"
       inkscape:stockid="Arrow2Mstart"
       inkscape:isstock="true"
       inkscape:collect="always">
      <path
         transform="scale(0.6)"
         d="M 8.7185878,4.0337352 -2.2072895,0.01601326 8.7185884,-4.0017078 c -1.7454984,2.3720609 -1.7354408,5.6174519 -6e-7,8.035443 z"
         style="fill:#000000;fill-opacity:1;fill-rule:evenodd;stroke:#000000;stroke-width:0.625;stroke-linejoin:round;stroke-opacity:1"
         id="path859" />
    </marker>
    <marker
       style="overflow:visible"
       id="marker1137"
       refX="0"
       refY="0"
       orient="auto"
       inkscape:stockid="Arrow2Mstart"
       inkscape:isstock="true">
      <path
         transform="scale(0.6)"
         d="M 8.7185878,4.0337352 -2.2072895,0.01601326 8.7185884,-4.0017078 c -1.7454984,2.3720609 -1.7354408,5.6174519 -6e-7,8.035443 z"
         style="fill:#000000;fill-opacity:1;fill-rule:evenodd;stroke:#000000;stroke-width:0.625;stroke-linejoin:round;stroke-opacity:1"
         id="path1135" />
    </marker>
    <marker
       style="overflow:visible"
       id="Arrow2Lstart"
       refX="0"
       refY="0"
       orient="auto"
       inkscape:stockid="Arrow2Lstart"
       inkscape:isstock="true">
      <path
         transform="matrix(1.1,0,0,1.1,1.1,0)"
         d="M 8.7185878,4.0337352 -2.2072895,0.01601326 8.7185884,-4.0017078 c -1.7454984,2.3720609 -1.7354408,5.6174519 -6e-7,8.035443 z"
         style="fill:#000000;fill-opacity:1;fill-rule:evenodd;stroke:#000000;stroke-width:0.625;stroke-linejoin:round;stroke-opacity:1"
         id="path853" />
    </marker>
    <g
       id="g3422">
      <symbol
         overflow="visible"
         id="symbol1429">
        <path
           style="stroke:none"
           d=""
           id="path7680" />
      </symbol>
      <symbol
         overflow="visible"
         id="symbol5614">
        <path
           style="stroke:none"
           d="m 7.375,-4.34375 c 0,-1.609375 -1.0625,-2.6875 -2.546875,-2.6875 -2.140625,0 -4.34375,2.265625 -4.34375,4.59375 0,1.65625 1.125,2.65625 2.5625,2.65625 2.109375,0 4.328125,-2.1875 4.328125,-4.5625 z m -4.28125,4.296875 c -0.984375,0 -1.671875,-0.796875 -1.671875,-2.109375 0,-0.453125 0.140625,-1.90625 0.90625,-3.0625 0.6875,-1.046875 1.65625,-1.5625 2.453125,-1.5625 0.8125,0 1.703125,0.5625 1.703125,2.046875 0,0.71875 -0.265625,2.265625 -1.25,3.5 C 4.75,-0.625 3.9375,-0.046875 3.09375,-0.046875 Z m 0,0"
           id="path1501" />
      </symbol>
    </g>
    <g
       id="g3384">
      <symbol
         overflow="visible"
         id="symbol9594">
        <path
           style="stroke:none"
           d=""
           id="path4327" />
      </symbol>
      <symbol
         overflow="visible"
         id="symbol4723">
        <path
           style="stroke:none"
           d="M 3.328125,-3.015625 C 3.390625,-3.265625 3.625,-4.1875 4.3125,-4.1875 c 0.046875,0 0.296875,0 0.5,0.125 C 4.53125,-4 4.34375,-3.765625 4.34375,-3.515625 c 0,0.15625 0.109375,0.34375 0.375,0.34375 0.21875,0 0.53125,-0.171875 0.53125,-0.578125 0,-0.515625 -0.578125,-0.65625 -0.921875,-0.65625 -0.578125,0 -0.921875,0.53125 -1.046875,0.75 -0.25,-0.65625 -0.78125,-0.75 -1.078125,-0.75 -1.03125,0 -1.609375,1.28125 -1.609375,1.53125 0,0.109375 0.109375,0.109375 0.125,0.109375 0.078125,0 0.109375,-0.03125 0.125,-0.109375 0.34375,-1.0625 1,-1.3125 1.34375,-1.3125 0.1875,0 0.53125,0.09375 0.53125,0.671875 0,0.3125 -0.171875,0.96875 -0.53125,2.375 -0.15625,0.609375 -0.515625,1.03125 -0.953125,1.03125 -0.0625,0 -0.28125,0 -0.5,-0.125 0.25,-0.0625 0.46875,-0.265625 0.46875,-0.546875 0,-0.265625 -0.21875,-0.34375 -0.359375,-0.34375 -0.3125,0 -0.546875,0.25 -0.546875,0.578125 0,0.453125 0.484375,0.65625 0.921875,0.65625 0.671875,0 1.03125,-0.703125 1.046875,-0.75 0.125,0.359375 0.484375,0.75 1.078125,0.75 1.03125,0 1.59375,-1.28125 1.59375,-1.53125 0,-0.109375 -0.078125,-0.109375 -0.109375,-0.109375 -0.09375,0 -0.109375,0.046875 -0.140625,0.109375 -0.328125,1.078125 -1,1.3125 -1.3125,1.3125 -0.390625,0 -0.546875,-0.3125 -0.546875,-0.65625 0,-0.21875 0.046875,-0.4375 0.15625,-0.875 z m 0,0"
           id="path1722" />
      </symbol>
    </g>
    <g
       id="g3727">
      <symbol
         overflow="visible"
         id="symbol4469">
        <path
           style="stroke:none"
           d=""
           id="path4050" />
      </symbol>
      <symbol
         overflow="visible"
         id="symbol7177">
        <path
           style="stroke:none"
           d="m 4.84375,-3.796875 c 0.046875,-0.140625 0.046875,-0.15625 0.046875,-0.234375 0,-0.171875 -0.140625,-0.265625 -0.296875,-0.265625 -0.09375,0 -0.25,0.0625 -0.34375,0.203125 -0.015625,0.0625 -0.109375,0.359375 -0.140625,0.546875 -0.078125,0.25 -0.140625,0.53125 -0.203125,0.796875 l -0.453125,1.796875 c -0.03125,0.140625 -0.46875,0.84375 -1.125,0.84375 -0.5,0 -0.609375,-0.4375 -0.609375,-0.8125 C 1.71875,-1.375 1.890625,-2 2.21875,-2.875 2.375,-3.28125 2.421875,-3.390625 2.421875,-3.59375 c 0,-0.4375 -0.3125,-0.8125 -0.8125,-0.8125 -0.953125,0 -1.3125,1.453125 -1.3125,1.53125 0,0.109375 0.09375,0.109375 0.109375,0.109375 0.109375,0 0.109375,-0.03125 0.15625,-0.1875 0.28125,-0.9375 0.671875,-1.234375 1.015625,-1.234375 0.078125,0 0.25,0 0.25,0.3125 0,0.25 -0.109375,0.515625 -0.171875,0.703125 -0.40625,1.0625 -0.578125,1.625 -0.578125,2.09375 0,0.890625 0.625,1.1875 1.21875,1.1875 0.390625,0 0.71875,-0.171875 1,-0.453125 -0.125,0.515625 -0.25,1.015625 -0.640625,1.546875 -0.265625,0.328125 -0.640625,0.625 -1.09375,0.625 -0.140625,0 -0.59375,-0.03125 -0.765625,-0.421875 0.15625,0 0.296875,0 0.421875,-0.125 C 1.328125,1.203125 1.421875,1.0625 1.421875,0.875 1.421875,0.5625 1.15625,0.53125 1.0625,0.53125 0.828125,0.53125 0.5,0.6875 0.5,1.171875 c 0,0.5 0.4375,0.875 1.0625,0.875 1.015625,0 2.046875,-0.90625 2.328125,-2.03125 z m 0,0"
           id="path3007" />
      </symbol>
    </g>
    <g
       id="g5283">
      <symbol
         overflow="visible"
         id="symbol2180">
        <path
           style="stroke:none"
           d=""
           id="path8181" />
      </symbol>
      <symbol
         overflow="visible"
         id="symbol5529">
        <path
           style="stroke:none"
           d="m 4.84375,-3.796875 c 0.046875,-0.140625 0.046875,-0.15625 0.046875,-0.234375 0,-0.171875 -0.140625,-0.265625 -0.296875,-0.265625 -0.09375,0 -0.25,0.0625 -0.34375,0.203125 -0.015625,0.0625 -0.109375,0.359375 -0.140625,0.546875 -0.078125,0.25 -0.140625,0.53125 -0.203125,0.796875 l -0.453125,1.796875 c -0.03125,0.140625 -0.46875,0.84375 -1.125,0.84375 -0.5,0 -0.609375,-0.4375 -0.609375,-0.8125 C 1.71875,-1.375 1.890625,-2 2.21875,-2.875 2.375,-3.28125 2.421875,-3.390625 2.421875,-3.59375 c 0,-0.4375 -0.3125,-0.8125 -0.8125,-0.8125 -0.953125,0 -1.3125,1.453125 -1.3125,1.53125 0,0.109375 0.09375,0.109375 0.109375,0.109375 0.109375,0 0.109375,-0.03125 0.15625,-0.1875 0.28125,-0.9375 0.671875,-1.234375 1.015625,-1.234375 0.078125,0 0.25,0 0.25,0.3125 0,0.25 -0.109375,0.515625 -0.171875,0.703125 -0.40625,1.0625 -0.578125,1.625 -0.578125,2.09375 0,0.890625 0.625,1.1875 1.21875,1.1875 0.390625,0 0.71875,-0.171875 1,-0.453125 -0.125,0.515625 -0.25,1.015625 -0.640625,1.546875 -0.265625,0.328125 -0.640625,0.625 -1.09375,0.625 -0.140625,0 -0.59375,-0.03125 -0.765625,-0.421875 0.15625,0 0.296875,0 0.421875,-0.125 C 1.328125,1.203125 1.421875,1.0625 1.421875,0.875 1.421875,0.5625 1.15625,0.53125 1.0625,0.53125 0.828125,0.53125 0.5,0.6875 0.5,1.171875 c 0,0.5 0.4375,0.875 1.0625,0.875 1.015625,0 2.046875,-0.90625 2.328125,-2.03125 z m 0,0"
           id="path7871" />
      </symbol>
    </g>
    <marker
       style="overflow:visible"
       id="marker1609-7"
       refX="0"
       refY="0"
       orient="auto"
       inkscape:stockid="Arrow2Mstart"
       inkscape:isstock="true">
      <path
         transform="scale(0.6)"
         d="M 8.7185878,4.0337352 -2.2072895,0.01601326 8.7185884,-4.0017078 c -1.7454984,2.3720609 -1.7354408,5.6174519 -6e-7,8.035443 z"
         style="fill:#000000;fill-opacity:1;fill-rule:evenodd;stroke:#000000;stroke-width:0.625;stroke-linejoin:round;stroke-opacity:1"
         id="path1607-2" />
    </marker>
    <marker
       style="overflow:visible"
       id="marker3155-9"
       refX="0"
       refY="0"
       orient="auto"
       inkscape:stockid="Arrow2Mstart"
       inkscape:isstock="true">
      <path
         transform="scale(0.6)"
         d="M 8.7185878,4.0337352 -2.2072895,0.01601326 8.7185884,-4.0017078 c -1.7454984,2.3720609 -1.7354408,5.6174519 -6e-7,8.035443 z"
         style="fill:#000000;fill-opacity:1;fill-rule:evenodd;stroke:#000000;stroke-width:0.625;stroke-linejoin:round;stroke-opacity:1"
         id="path3153-4" />
    </marker>
    <marker
       style="overflow:visible"
       id="marker3155-7"
       refX="0"
       refY="0"
       orient="auto"
       inkscape:stockid="Arrow2Mstart"
       inkscape:isstock="true">
      <path
         transform="scale(0.6)"
         d="M 8.7185878,4.0337352 -2.2072895,0.01601326 8.7185884,-4.0017078 c -1.7454984,2.3720609 -1.7354408,5.6174519 -6e-7,8.035443 z"
         style="fill:#000000;fill-opacity:1;fill-rule:evenodd;stroke:#000000;stroke-width:0.625;stroke-linejoin:round;stroke-opacity:1"
         id="path3153-8" />
    </marker>
    <marker
       style="overflow:visible"
       id="marker3155-3"
       refX="0"
       refY="0"
       orient="auto"
       inkscape:stockid="Arrow2Mstart"
       inkscape:isstock="true">
      <path
         transform="scale(0.6)"
         d="M 8.7185878,4.0337352 -2.2072895,0.01601326 8.7185884,-4.0017078 c -1.7454984,2.3720609 -1.7354408,5.6174519 -6e-7,8.035443 z"
         style="fill:#000000;fill-opacity:1;fill-rule:evenodd;stroke:#000000;stroke-width:0.625;stroke-linejoin:round;stroke-opacity:1"
         id="path3153-7" />
    </marker>
    <marker
       style="overflow:visible"
       id="marker3155-8"
       refX="0"
       refY="0"
       orient="auto"
       inkscape:stockid="Arrow2Mstart"
       inkscape:isstock="true">
      <path
         transform="scale(0.6)"
         d="M 8.7185878,4.0337352 -2.2072895,0.01601326 8.7185884,-4.0017078 c -1.7454984,2.3720609 -1.7354408,5.6174519 -6e-7,8.035443 z"
         style="fill:#000000;fill-opacity:1;fill-rule:evenodd;stroke:#000000;stroke-width:0.625;stroke-linejoin:round;stroke-opacity:1"
         id="path3153-88" />
    </marker>
    <marker
       style="overflow:visible"
       id="marker3155-33"
       refX="0"
       refY="0"
       orient="auto"
       inkscape:stockid="Arrow2Mstart"
       inkscape:isstock="true">
      <path
         transform="scale(0.6)"
         d="M 8.7185878,4.0337352 -2.2072895,0.01601326 8.7185884,-4.0017078 c -1.7454984,2.3720609 -1.7354408,5.6174519 -6e-7,8.035443 z"
         style="fill:#000000;fill-opacity:1;fill-rule:evenodd;stroke:#000000;stroke-width:0.625;stroke-linejoin:round;stroke-opacity:1"
         id="path3153-3" />
    </marker>
    <marker
       style="overflow:visible"
       id="marker3155-33-1"
       refX="0"
       refY="0"
       orient="auto"
       inkscape:stockid="Arrow2Mstart"
       inkscape:isstock="true">
      <path
         transform="scale(0.6)"
         d="M 8.7185878,4.0337352 -2.2072895,0.01601326 8.7185884,-4.0017078 c -1.7454984,2.3720609 -1.7354408,5.6174519 -6e-7,8.035443 z"
         style="fill:#000000;fill-opacity:1;fill-rule:evenodd;stroke:#000000;stroke-width:0.625;stroke-linejoin:round;stroke-opacity:1"
         id="path3153-3-2" />
    </marker>
    <marker
       style="overflow:visible"
       id="marker3155-33-1-4"
       refX="0"
       refY="0"
       orient="auto"
       inkscape:stockid="Arrow2Mstart"
       inkscape:isstock="true">
      <path
         transform="scale(0.6)"
         d="M 8.7185878,4.0337352 -2.2072895,0.01601326 8.7185884,-4.0017078 c -1.7454984,2.3720609 -1.7354408,5.6174519 -6e-7,8.035443 z"
         style="fill:#000000;fill-opacity:1;fill-rule:evenodd;stroke:#000000;stroke-width:0.625;stroke-linejoin:round;stroke-opacity:1"
         id="path3153-3-2-3" />
    </marker>
    <clipPath
       clipPathUnits="userSpaceOnUse"
       id="clipPath11692">
      <path
         id="path11694"
         style="fill:#ff0000;fill-opacity:1;fill-rule:nonzero;stroke:none;stroke-width:0.264583"
         d="m 21.262523,-12.661904 v -60.793705 h 60.794222 v 60.793705 z m 31.136084,-29.674157 c 0.307411,0.0028 0.671396,-0.1178 1.052131,-0.41393 0.292344,-0.227378 0.599686,-0.436591 0.876949,-0.682127 0.548928,-0.486111 0.955053,-0.910839 1.380797,-1.476397 0.07719,-0.102552 0.19586,-0.196299 0.222207,-0.318328 0.188368,-0.09936 0.359127,-0.598863 0.517798,-0.759642 0.04314,-0.04371 0.09749,-0.07473 0.143661,-0.11524 0.333991,-0.278183 0.629501,-0.597445 0.931724,-0.90847 0.153247,-0.220668 0.909791,-0.731846 0.04754,-0.192755 -0.881866,0.0068 -0.07605,0.04917 0.815973,-0.542602 0.10596,-0.07029 0.109601,-0.229452 0.170532,-0.341064 0.01929,-0.03536 0.04062,-0.110318 0.077,-0.09302 0.0089,0.0042 -0.0042,0.01871 -0.0067,0.02842 0.128288,-0.158057 0.265935,-0.308681 0.381889,-0.47594 0.05508,-0.07945 0.08011,-0.176731 0.126608,-0.261483 0.113816,-0.207428 0.242462,-0.44528 0.411861,-0.612365 -0.03381,0.03628 -0.131866,0.148088 -0.101288,0.109038 0.11779,-0.150397 0.254278,-0.286507 0.363286,-0.443384 0.11733,-0.168849 0.178779,-0.528645 0.298173,-0.669726 0.03613,-0.04269 0.09666,-0.05595 0.145211,-0.08372 0.39289,-0.33636 0.757142,-0.657394 1.055751,-1.084689 0.147315,-0.210801 0.256394,-0.445759 0.385506,-0.668176 0.04879,-0.08232 0.107423,-0.159543 0.146243,-0.247012 0.02732,-0.06157 0.06154,-0.123293 0.09043,-0.186036 0.130512,-0.107297 0.222801,-0.271087 0.360702,-0.357601 0.01873,-0.01175 -0.04051,0.05325 -0.02066,0.06305 0.02671,0.01315 0.06076,-0.01302 0.0832,-0.03256 0.185486,-0.161565 0.35773,-0.337873 0.5364,-0.506944 0.06111,-0.09112 0.211895,-0.487654 0.382405,-0.564825 0.05089,-0.02304 -0.0204,0.09637 -0.02016,0.09612 0.241705,-0.247203 0.479147,-0.498583 0.71882,-0.747757 0.01712,-0.05579 0.03175,-0.11253 0.04702,-0.168982 0.480219,-0.22285 0.720855,-0.67206 1.01441,-1.091922 0.01214,-0.02753 0.02177,-0.05645 0.03256,-0.08475 0.05699,0.0075 0.107437,-0.02093 0.155546,-0.05219 -0.01619,-0.107111 0.01548,0.136266 0.243396,-0.07906 0.0714,-0.06746 0.07409,-0.181862 0.111103,-0.272852 -0.0055,-0.0083 -0.01561,-0.01495 -0.01654,-0.02479 -0.0043,-0.04687 -0.0078,-0.09531 0.0011,-0.141595 0.0021,-0.01138 0.0072,-0.02199 0.01035,-0.03307 0.04203,-0.02841 0.08441,-0.05631 0.126089,-0.08526 0.343308,-0.238538 0.54378,-0.401029 0.865063,-0.697633 0.345202,-0.363384 0.679548,-0.72536 0.961181,-1.141015 0.285496,-0.421354 0.0515,-0.152376 0.314712,-0.432015 0.386903,-0.245535 0.434713,-0.758293 0.684712,-1.096573 0.0925,-0.125161 0.134009,0.01741 0.220658,-0.07235 0.196053,-0.203097 0.370784,-0.42573 0.55604,-0.63872 0.328806,-0.620413 0.650274,-1.270362 1.25367,-1.664499 -0.09671,0.04674 -0.353671,0.22738 -0.290423,0.14056 0.12595,-0.172873 0.289695,-0.31391 0.448551,-0.458888 0.01371,-0.009 0.03563,-0.01831 0.04548,-0.02687 0.01953,-0.01696 0.03228,-0.03942 0.04806,-0.05943 0.05725,-0.05482 0.110561,-0.112996 0.161747,-0.173114 0.07556,-0.03742 0.152093,-0.07329 0.225309,-0.114208 0.226338,-0.249452 0.34943,-0.715901 0.571542,-0.954979 0.06644,-0.07152 0.183121,-0.06853 0.272852,-0.106971 1.56347,-0.66975 0.891,-2.257674 -0.414446,-1.930114 -7.4e-5,-0.0019 5.29e-4,-0.0065 5.29e-4,-0.0083 0.0028,-0.0021 1.4e-4,7.9e-5 0.0041,-0.0031 0.0058,-0.0044 0.01177,-0.009 0.01757,-0.01344 0.136033,-0.102838 0.03215,-0.239797 -0.103868,-0.136943 -0.006,0.0045 -0.01204,0.0089 -0.0181,0.01344 -0.05308,0.04062 -0.05703,0.04526 -0.07131,0.115755 -7.94e-4,0.0041 7.93e-4,0.0083 0.0016,0.01241 2.65e-4,0.0019 -1.64e-4,0.0069 0.0011,0.0062 -1.46e-4,0.0011 -1.99e-4,0.0021 -5.3e-4,0.0031 -5.29e-4,5.29e-4 -7.93e-4,5.29e-4 -0.0011,0.0011 -0.0061,-0.0041 -0.01294,-0.0088 -0.01913,-0.01291 v -0.144693 c -2.65e-4,-0.169958 -0.172601,-0.169878 -0.172601,5.29e-4 v 0.02635 c -0.01191,-0.0086 -0.02212,-0.01447 -0.03462,-0.02376 -0.01971,-0.01468 -0.03696,-0.03274 -0.05529,-0.04909 -0.04775,-0.03969 -0.08267,-0.06912 -0.134358,-0.0987 -0.01474,-0.0084 -0.03068,-0.03419 -0.04444,-0.02429 -0.0466,0.03367 -0.07862,0.08495 -0.108006,0.134358 -0.0043,0.0072 0.01125,0.01251 0.01707,0.0186 0.09803,0.115403 0.197852,0.231473 0.283186,0.357084 -0.03878,0.02101 -0.07788,0.04178 -0.117306,0.06615 -0.0095,0.0059 -0.01749,0.01172 -0.02687,0.01757 -0.01855,-0.005 -0.03703,-0.01019 -0.05581,-0.01497 -0.145024,-0.03455 -0.18801,-0.04475 -0.283186,-0.06718 -0.05705,-0.04164 -0.112234,-0.08027 -0.189138,-0.122989 -0.02802,-0.01558 -0.06061,-0.05131 -0.08888,-0.03617 -7.94e-4,5.3e-4 -7.94e-4,5.3e-4 -0.0016,0.0011 -0.04746,-0.02265 -0.08233,-0.02188 -0.07803,0.05013 -0.09701,0.06968 -0.03506,0.08913 0.0279,0.118856 0.0062,0.0071 0.01482,0.01172 0.02635,0.01394 2.62e-4,1.46e-4 7.94e-4,-1.45e-4 0.0011,0 0.02885,0.01625 0.05692,0.03354 0.08526,0.05064 -7.94e-4,0.0158 -0.0021,0.02984 -5.29e-4,0.05013 0.0026,0.03174 0.0565,0.01939 0.09147,0.02326 0.0209,0.0085 0.04043,0.01738 0.06201,0.02429 0.0037,0.0026 0.0076,0.0052 0.01138,0.0078 -0.0056,0.02666 -0.01333,0.05327 -0.01085,0.0801 0.0035,0.03727 0.0081,0.06361 0.01291,0.08682 -0.41805,0.315182 -0.691031,0.648329 -0.926042,1.164269 -0.009,0.0061 -0.02291,0.01349 -0.03101,0.01913 -0.282742,0.196572 -0.453261,0.427813 -0.503844,0.572058 -0.390503,0.318667 -0.734713,0.691351 -1.016992,1.107427 -0.03075,0.02529 -0.06656,0.05387 -0.09612,0.07803 -0.102698,0.08394 -0.202713,0.170931 -0.303342,0.257347 7.94e-4,-0.01683 0.0027,-0.03278 0.0021,-0.05064 -7.94e-4,-0.02535 -0.0019,-0.09656 -0.01498,-0.07493 -0.0056,0.0091 -0.0076,0.01998 -0.01241,0.02945 -0.01458,-0.06166 -0.02888,-0.123426 -0.04289,-0.185002 -0.0021,-0.0089 -0.0172,-0.0054 -0.02585,-0.0083 -0.106937,-0.03613 -0.02185,-0.01286 -0.259932,-5.29e-4 -0.444061,0.928526 0.01527,-0.01765 -0.152445,0.305408 -0.02686,0.03806 -0.07675,0.104527 -0.06925,0.108519 0.03515,0.01889 0.155819,0.01656 0.11679,0.02479 -0.06697,0.01426 -0.13984,-0.02617 -0.205155,-0.0057 -0.181417,0.05705 -0.193482,0.108622 -0.266652,0.231511 -0.156536,0.259519 -0.298562,0.544388 -0.512631,0.763262 -0.07605,0.07775 -0.17255,0.13267 -0.258381,0.199469 -0.326679,0.254243 -0.213503,0.150429 -0.403077,0.336415 -0.0191,0.0284 -0.03763,0.05727 -0.05736,0.08526 -0.338201,0.314729 -0.650793,0.65532 -0.922425,1.031462 -0.22397,0.229338 -0.332211,0.533474 -0.510048,0.792199 -0.09618,0.139939 -0.204237,0.27109 -0.30644,0.406694 -0.333386,0.403233 -0.235945,0.26923 -0.612365,0.83199 -0.08787,0.131369 -0.174503,0.264137 -0.255283,0.399976 -0.08778,0.147601 -0.16392,0.265377 -0.133842,0.415994 -0.125278,0.114483 -0.250251,0.229227 -0.381371,0.336931 -0.601141,0.493784 -1.238184,0.959527 -1.703255,1.594736 -1.363549,1.554954 -2.768801,3.077607 -3.956349,4.7687 -0.918477,0.903427 -1.834454,1.810866 -2.690275,2.773992 -0.422106,0.475035 -0.811329,0.977667 -1.218528,1.465543 -0.560912,0.669287 -0.656842,0.845018 -1.262973,1.375111 -0.04794,0.04192 -0.209997,0.05172 -0.164849,0.09663 0.04579,0.04555 0.114327,-0.0595 0.171567,-0.0894 0.129683,0.157339 0.259437,0.314544 0.389122,0.471805 -0.05314,0.04562 -0.09958,0.09242 -0.144176,0.139009 -0.517446,-0.446125 -1.08103,-0.914061 -0.700215,-0.323493 0.150297,0.233082 0.267735,0.494184 0.41651,0.728636 -0.300202,0.645531 0.09786,1.247548 0.773081,1.253673 z m 18.406628,-20.671091 c -0.03059,0.02929 -0.06218,0.05768 -0.09354,0.0863 -0.160925,0.105272 -0.546034,0.228732 -0.426331,0.133326 0.182549,-0.145489 0.392742,-0.2496 0.603583,-0.352949 -0.0231,0.04845 -0.05147,0.09245 -0.08372,0.133324 z m -16.46773,17.945158 c -0.0526,-0.0013 -0.05009,-0.192834 -0.03927,-0.429948 0.08136,-0.09913 0.163499,-0.19757 0.244946,-0.296622 0.0141,0.243742 -0.0035,0.476483 -0.138493,0.668176 -0.02861,0.04064 -0.05071,0.05879 -0.06718,0.05839 z m 9.69295,-9.971485 c 0.02535,-0.09264 0.0528,-0.184475 0.08992,-0.272851 0.02672,-0.06361 -0.0043,0.141229 -0.03152,0.204639 -0.0083,0.01945 -0.0332,0.04449 -0.05839,0.06821 z m 1.39423,-4.443655 c 0.02506,-0.04252 0.04428,-0.07208 0.0708,-0.118341 0.10686,-0.186375 0.209642,-0.37493 0.311092,-0.564306 0.140919,-0.263054 0.14778,-0.285371 0.171566,-0.322461 0.271338,-0.248972 0.558869,-0.481319 0.858345,-0.696597 -0.066,0.09786 -0.120811,0.203152 -0.192754,0.37052 -0.0045,0.0104 -0.0072,0.02175 -0.01085,0.03256 -0.02975,0.03069 -0.08071,0.07935 -0.104386,0.104386 -0.01471,0.01553 -0.0315,0.03511 -0.04651,0.05116 -0.106897,-0.08645 -0.131694,-0.06249 -0.245978,0.03772 -0.02812,0.04009 -0.05805,0.07851 -0.08423,0.119891 -0.01982,0.03134 -0.02759,0.0696 -0.04599,0.101804 -0.01389,0.02429 -0.07047,0.05772 -0.04547,0.07028 0.02593,0.01304 0.06234,0.02059 0.100251,0.02635 -0.009,0.01027 -0.01836,0.02066 -0.02739,0.03101 -0.05989,0.0045 -0.0033,-5.29e-4 -0.157097,0.01394 -0.02663,0.03804 -0.05757,0.07361 -0.0801,0.114205 -0.120647,0.217416 0.07651,-0.0279 -0.130741,0.266649 -0.03508,0.04986 -0.07953,0.09216 -0.121438,0.136427 -0.101031,0.106731 -0.155451,0.160568 -0.21911,0.224793 z m 1.850017,-2.487187 c 0.0013,-0.0024 0.0028,-0.0048 0.0041,-0.0072 0.0031,-0.0011 0.0062,-0.0021 0.0093,-0.0031 -0.0016,0.0019 -0.0029,0.0061 -0.0047,0.0072 -0.0016,0.0013 -0.0065,0.0019 -0.0088,0.0031 z" />
    </clipPath>
    <marker
       style="overflow:visible"
       id="marker10933-4"
       refX="0"
       refY="0"
       orient="auto"
       inkscape:stockid="Arrow2Mstart"
       inkscape:isstock="true">
      <path
         transform="scale(0.6)"
         d="M 8.7185878,4.0337352 -2.2072895,0.01601326 8.7185884,-4.0017078 c -1.7454984,2.3720609 -1.7354408,5.6174519 -6e-7,8.035443 z"
         style="fill:#000000;fill-opacity:1;fill-rule:evenodd;stroke:#000000;stroke-width:0.625;stroke-linejoin:round;stroke-opacity:1"
         id="path10931-7" />
    </marker>
    <clipPath
       clipPathUnits="userSpaceOnUse"
       id="clipPath11883">
      <path
         id="path11885"
         style="fill:#ff0000;fill-opacity:1;fill-rule:nonzero;stroke:none;stroke-width:0.264583"
         d="m 29.782416,-21.183348 v -43.624209 h 43.755468 v 43.624209 z m 7.160286,-36.531619 c 0.09098,-2.65e-4 0.17751,-0.08534 0.15813,-0.254767 -0.01789,-0.156467 0.02379,-0.194093 0.04134,-0.323493 0.0053,-0.03931 -8.99e-4,-0.114366 -0.0031,-0.152445 -0.0095,-0.118404 -0.01386,-0.123756 -0.04341,-0.186553 3.18e-4,-0.0039 -2.08e-4,-0.0056 0.0072,-0.08268 0.0068,-0.0683 -0.01335,-0.121825 -0.04031,-0.171566 0.0065,0.0039 0.01253,0.0086 0.01912,0.01241 0.03184,0.02103 0.06451,0.04091 0.0956,0.06304 0.07731,0.05504 0.147292,0.117692 0.234612,0.157612 0.02775,0.0127 0.05377,0.03037 0.08372,0.03617 0.03857,0.0074 0.07855,0.0021 0.117822,0.0031 0.0416,-0.03064 0.08823,-0.05576 0.125057,-0.09199 0.0013,-0.0013 0.0019,-0.0038 0.0031,-0.0052 0.05096,0.03066 0.05156,0.03102 0.153478,0.09147 0.107903,0.06985 0.188037,0.121391 0.274919,0.170016 0.06896,0.04157 0.138767,0.08113 0.211874,0.117822 0.04295,0.02156 0.156543,0.06988 0.194303,0.06718 0.06675,-0.0048 0.128126,-0.03869 0.192236,-0.05788 -0.01956,-0.09461 -0.01828,-0.195816 -0.05839,-0.283702 -0.01278,-0.02803 -0.05726,-0.02336 -0.0863,-0.03359 -0.04291,-0.01513 -0.08583,-0.03032 -0.129708,-0.04237 -0.0063,-0.0016 -0.01364,0.0042 -0.01964,0.0016 -0.03137,-0.01342 -0.04619,-0.02424 -0.0708,-0.03617 -0.06669,-0.03836 -0.13442,-0.07487 -0.199987,-0.117824 -0.02842,-0.01987 -0.05767,-0.03896 -0.08527,-0.05994 -0.118758,-0.09032 -0.145888,-0.138454 -0.289388,-0.203605 -0.01638,-0.0074 -0.03702,-0.01312 -0.05581,-0.0186 -6.88e-4,-0.0013 -0.0014,-0.0024 -0.0021,-0.0036 -0.05383,-0.01172 -0.03133,-0.0061 0.0021,0.0036 0.0069,0.01206 0.01372,0.02413 0.02067,0.03617 -0.01478,-0.0088 -0.06178,-0.03701 -0.0739,-0.04393 -0.04136,-0.05473 -0.129466,-0.124958 -0.161748,-0.148828 -0.0062,-0.0045 -0.01562,-0.0029 -0.02222,-0.0067 -0.118591,-0.06861 -0.145124,-0.09512 -0.262517,-0.183967 -0.280203,-0.25586 -0.158643,-0.123439 -0.374654,-0.395843 -0.05981,-0.07542 -0.119437,-0.150982 -0.179317,-0.226343 -0.0185,-0.02328 -0.47384,-0.626931 -0.40566,0 -0.0038,0.05848 -0.02227,0.114006 -0.02325,0.173116 -7.67e-4,0.0457 0.01325,0.248108 0.08888,0.237197 -0.0018,0.0094 -0.0089,0.02588 -0.0021,0.02273 0.03899,-0.01812 0.05814,-0.277902 -0.0021,0.118857 0.01225,0.01622 0.024,0.03267 0.03669,0.04858 -0.0012,-6.1e-5 -0.0022,0.0079 0,0.01085 0.002,0.0026 0.0036,0.0035 0.0067,0.0072 0.01726,0.0487 0.02781,0.100517 0.05168,0.146759 0.0088,0.01987 0.01745,0.03957 0.02635,0.05943 -6.88e-4,-0.0036 -0.0039,-0.01405 -0.0021,-0.01085 0.0042,0.0077 0.0075,0.01579 0.0093,0.02429 0.019,0.08904 0.02651,0.182808 0.07596,0.262517 0.05693,0.09535 0.07485,0.119866 0.141077,0.198437 0.0063,0.0075 0.01074,0.01802 0.01964,0.02222 0.0055,0.0026 0.01487,-0.01016 0.01757,-0.0047 0.006,0.0123 -2.4e-5,0.02765 0,0.04134 0.01125,0.02724 -0.01164,0.07209 -0.01033,0.10077 0.0027,0.06013 0.01861,0.08979 0.04289,0.121954 5.82e-4,0.01498 -5.82e-4,0.03013 5.29e-4,0.04496 9e-4,0.01225 0.0028,0.02447 0.0041,0.03669 0.002,0.02947 -0.0011,0.05951 0.0052,0.08837 0.0011,0.005 0.0096,0.0079 0.0083,0.01291 -0.0074,0.02889 -0.02597,0.05422 -0.03307,0.0832 -0.02637,0.107442 -0.01964,0.159697 -0.01964,0.269751 0,0.170534 0.09557,0.255042 0.186552,0.254767 z m -0.523999,-1.752865 c -0.002,-0.0056 -0.0035,-0.01154 -0.0057,-0.01706 0.01429,0.01794 0.02931,0.0353 0.04134,0.05478 0.0091,0.01471 -0.01944,-0.01788 -0.03566,-0.03772 z m -0.0057,-0.01706 c -2.91e-4,-2.65e-4 -7.41e-4,-5.29e-4 -0.001,-0.0011 1.7e-4,8e-6 -2e-4,-0.0021 0,-0.0016 3.44e-4,7.94e-4 6.88e-4,0.0019 0.001,0.0026 z m 0.676444,0.838192 c -0.0069,-0.01484 -0.009,-0.01873 -0.01964,-0.04341 0.003,0.0032 0.0069,0.0056 0.0093,0.0093 0.0055,0.0086 0.0083,0.02167 0.01033,0.03411 z m 0.356051,-0.158128 c 0.0042,0.02056 -0.02604,-0.04654 -0.01188,-0.06201 6.61e-4,-7.93e-4 0.0014,-0.0013 0.0021,-0.0021 0.0027,0.02183 0.0058,0.04425 0.0098,0.06408 z m -0.689363,-0.406178 c -0.0134,-0.007 -0.003,-0.0019 -10e-4,-0.0026 3.97e-4,7.94e-4 6.35e-4,0.0019 10e-4,0.0026 z m 0.04031,-0.219626 c -0.0018,-0.0042 -0.0028,-0.0087 -0.0047,-0.01291 0.0028,0.0029 0.006,0.0054 0.0088,0.0083 -0.0014,0.0016 -0.0028,0.0031 -0.0041,0.0047 z" />
    </clipPath>
    <marker
       style="overflow:visible"
       id="marker10933-4-2"
       refX="0"
       refY="0"
       orient="auto"
       inkscape:stockid="Arrow2Mstart"
       inkscape:isstock="true">
      <path
         transform="scale(0.6)"
         d="M 8.7185878,4.0337352 -2.2072895,0.01601326 8.7185884,-4.0017078 c -1.7454984,2.3720609 -1.7354408,5.6174519 -6e-7,8.035443 z"
         style="fill:#000000;fill-opacity:1;fill-rule:evenodd;stroke:#000000;stroke-width:0.625;stroke-linejoin:round;stroke-opacity:1"
         id="path10931-7-5" />
    </marker>
    <clipPath
       clipPathUnits="userSpaceOnUse"
       id="clipPath12076">
      <path
         id="path12078"
         style="fill:#ff0000;fill-opacity:1;fill-rule:nonzero;stroke:none;stroke-width:0.264583"
         d="m 39.079523,-30.284084 v -25.332822 h 25.332821 v 25.332822 z m 3.713987,-2.341459 c 0.03732,7.9e-5 0.08226,-0.01513 0.130222,-0.05168 0.17834,-0.135882 0.371184,-0.256889 0.527616,-0.419097 0.0368,-0.03816 0.06786,-0.08175 0.101804,-0.122473 0.0046,-0.0054 0.0097,-0.01029 0.01394,-0.01603 0.01992,0.0091 0.08823,-0.02706 0.104904,-0.03824 0.0061,-0.0042 0.01299,-0.0076 0.0186,-0.01241 0.03943,-0.03388 0.06253,-0.05737 0.09715,-0.09302 0.0066,-0.0068 0.01315,-0.01371 0.01963,-0.02066 0.0425,-0.02016 0.06507,-0.0324 0.09767,-0.07235 0.0044,-0.0055 0.01061,-0.01035 0.01291,-0.01707 0.01035,-0.03016 0.01651,-0.06171 0.02479,-0.0925 -2.14e-4,-0.0029 5.3e-4,-0.0068 0.0011,-0.01035 0.02513,-0.04174 0.03659,-0.06823 0.04909,-0.140044 -0.0013,-0.02545 -0.003,-0.04746 -0.0093,-0.0708 -2.01e-4,-0.0021 5.29e-4,-0.0028 5.29e-4,-0.0041 2.65e-4,-0.0029 -0.0021,-0.0058 -0.0021,-0.0088 0.0013,-0.07536 -0.101343,-0.158766 -0.175699,-0.13539 -0.01582,0.005 -0.04113,0.01688 -0.0646,0.02739 -0.03517,-0.01926 -0.0416,-0.01365 -0.02687,0.01138 -0.03831,0.01876 -0.07668,0.04029 -0.10077,0.05994 -0.04051,0.03306 -0.07679,0.07101 -0.115239,0.106455 -0.06981,0.07537 -0.07877,0.07891 -0.136424,0.164331 -0.01119,0.01656 -0.01654,0.03692 -0.02946,0.05219 -0.0076,0.009 -0.02008,0.0123 -0.02997,0.0186 -0.01053,0.0067 -0.02149,0.01275 -0.03152,0.02016 -0.02029,0.01495 -0.0396,0.03146 -0.05943,0.04702 -0.04863,0.04158 -0.05573,0.04067 -0.08578,0.119891 -0.0062,0.0163 -0.0056,0.03418 -0.0072,0.05168 -0.0011,-0.0039 -0.0021,-0.0079 -0.0031,-0.01188 -0.0019,-0.007 -0.0071,0.05861 5.29e-4,0.02894 0.0013,-0.0056 0.0021,-0.01127 0.0026,-0.01704 0.01074,0.04042 0.02013,0.0813 0.02997,0.121957 -0.118414,0.09742 -0.249145,0.183002 -0.368451,0.275434 -0.142986,0.110778 -0.09904,0.248325 0.01291,0.248565 z m 0.775144,-0.611333 c 0.0055,-0.0073 0.01045,-0.01511 0.01757,-0.02066 0.0033,-0.0026 0.0034,0.0095 5.3e-4,0.01241 -0.0047,0.0048 -0.01402,0.0058 -0.0181,0.0083 z m 0.351401,-0.313158 c 0.01008,-0.01564 0.0122,-0.02138 0.01913,-0.03256 -5.3e-5,2.64e-4 6.6e-5,7.94e-4 0,0.0011 -0.0031,0.01185 -0.02572,0.04183 -0.01913,0.03152 z m -0.01757,-0.118856 c -7.94e-4,-2.49e-4 -0.0058,-0.0049 -0.0072,-0.0057 0.0011,-0.0016 0.0016,-0.0031 0.0026,-0.0047 0.0024,0.0043 0.0074,0.01116 0.0047,0.01035 z m -0.198438,-0.162783 c -2.64e-4,-2.64e-4 -7.93e-4,-7.93e-4 -0.0011,-0.0011 -0.0044,-0.0044 0.01323,-0.02111 0.01035,-0.0155 -0.0029,0.0056 -0.0063,0.01095 -0.0093,0.01654 z" />
    </clipPath>
    <marker
       style="overflow:visible"
       id="marker10933-0"
       refX="0"
       refY="0"
       orient="auto"
       inkscape:stockid="Arrow2Mstart"
       inkscape:isstock="true">
      <path
         transform="scale(0.6)"
         d="M 8.7185878,4.0337352 -2.2072895,0.01601326 8.7185884,-4.0017078 c -1.7454984,2.3720609 -1.7354408,5.6174519 -6e-7,8.035443 z"
         style="fill:#000000;fill-opacity:1;fill-rule:evenodd;stroke:#000000;stroke-width:0.625;stroke-linejoin:round;stroke-opacity:1"
         id="path10931-72" />
    </marker>
    <clipPath
       clipPathUnits="userSpaceOnUse"
       id="clipPath12277">
      <path
         id="path12279"
         style="fill:#ff0000;fill-opacity:1;fill-rule:nonzero;stroke:none;stroke-width:0.264583"
         d="m 46.763807,-38.228301 v -9.706901 H 56.603 v 9.706901 z m 8.454266,-0.846979 c 0.05686,-0.0049 0.09174,-0.07467 0.03411,-0.16433 -0.04329,-0.06733 -0.05785,-0.08922 -0.07648,-0.11679 0.0032,-0.0033 0.0062,-0.0067 0.0088,-0.01035 0.0075,0.01437 0.01561,0.02665 0.02997,0.02687 0.0011,1.6e-5 0.0021,-5.29e-4 0.0031,-5.29e-4 0.0068,0.0078 0.0131,0.01349 0.02016,0.0217 0.0044,0.0051 0.006,0.02225 0.01035,0.01707 0.01378,-0.01693 0.02837,-0.03426 0.04237,-0.05168 0.01466,-0.0043 0.0283,-0.0098 0.04237,-0.01601 0.0029,0.0024 0.0058,0.0045 0.0088,0.0067 0.0093,0.01127 0.01622,0.024 0.02326,0.03049 0.01683,0.01558 0.03234,0.04865 0.05271,0.04703 0.0094,0.03582 0.01625,0.02969 0.02894,-0.01035 0.0244,-0.01077 0.04481,-0.02156 0.05994,-0.03152 0.01445,0.0086 0.02798,0.01863 0.04289,0.02635 0.01704,0.0088 0.04579,0.03321 0.0553,0.01654 0.02769,-0.04855 0.02545,-0.108281 0.03462,-0.163814 -7.93e-4,-2.65e-4 -0.0013,-5.29e-4 -0.0021,-0.0011 7.93e-4,-0.0011 0.0016,-0.0024 0.0026,-0.0036 5.29e-4,-0.0026 5.29e-4,-0.0052 0.0011,-0.0078 -0.01757,-0.0097 -0.03515,-0.01976 -0.05271,-0.02946 -0.01773,-0.0098 -0.03453,-0.01598 -0.05013,-0.01963 -0.003,-0.0021 -0.0063,-0.0036 -0.0093,-0.0057 -0.06692,-0.046 -0.13177,-0.09698 -0.197405,-0.146243 -0.03808,-0.05128 -0.06697,-0.07692 -0.210839,-0.174668 -0.04734,-0.03216 -0.09695,-0.0611 -0.148828,-0.08526 -0.02619,-0.0122 -0.05956,-0.03909 -0.08372,-0.02326 -0.0021,0.0013 -0.003,0.0027 -0.0052,0.0041 -0.01794,-0.01873 -0.07938,-0.07015 -0.09147,-0.07855 -0.133675,-0.150535 -0.134866,-0.147495 -0.289904,-0.260967 -0.0304,2.65e-4 -0.07307,-0.01892 -0.09664,-0.0072 -0.0048,-0.0016 -0.01058,-0.0062 -0.01344,-0.0016 -0.02265,0.03689 -0.02885,0.08082 -0.03514,0.12454 -0.01257,0.01071 -0.02714,0.01929 -0.03824,0.03152 -0.0059,0.0065 0.01751,0.0049 0.02479,0.0098 0.0019,0.0013 0.0037,0.0028 0.0057,0.0041 -7.94e-4,0.0035 -7.94e-4,0.0074 -0.0016,0.01085 0.0226,0.01553 0.04604,0.02969 0.0677,0.04651 0.05595,0.04345 0.110726,0.08927 0.165365,0.134358 -0.0099,0.05013 -0.02742,0.100222 -0.02479,0.150379 -0.0019,-5.29e-4 -0.01114,-0.0057 -0.0088,-0.0036 0.0067,0.006 0.0031,0.0019 0.0088,0.0067 2.64e-4,0.0042 -0.0016,0.0083 -0.0011,0.01241 0.004,0.02543 0.04157,0.03024 0.06305,0.04444 0.01397,0.0092 0.02892,0.01664 0.04289,0.02585 0.03175,0.02098 0.05989,0.0471 0.0894,0.07131 0.0039,0.0041 0.0026,0.003 0.0067,0.0072 0.04823,0.05012 0.249483,0.311499 0.273883,0.345196 0.02802,0.03871 0.05168,0.08022 0.07752,0.120407 0.03458,0.05379 0.07647,0.07424 0.110588,0.07131 z m -0.628901,-0.701249 c -0.0074,-0.01027 -0.01003,-0.01476 0.0021,-0.0036 -7.93e-4,0.0011 -0.0013,0.0024 -0.0021,0.0036 z" />
    </clipPath>
  </defs>
  <sodipodi:namedview
     id="base"
     pagecolor="#ffffff"
     bordercolor="#666666"
     borderopacity="1.0"
     inkscape:pageopacity="0.0"
     inkscape:pageshadow="2"
     inkscape:zoom="1.3575707"
     inkscape:cx="252.82174"
     inkscape:cy="154.22218"
     inkscape:document-units="mm"
     inkscape:current-layer="layer1"
     inkscape:document-rotation="0"
     showgrid="false"
     units="mm"
     width="460pt"
     inkscape:window-width="1304"
     inkscape:window-height="745"
     inkscape:window-x="54"
     inkscape:window-y="-8"
     inkscape:window-maximized="1"
     inkscape:pagecheckerboard="false"
     borderlayer="false"
     fit-margin-top="0"
     fit-margin-left="0"
     fit-margin-right="0"
     fit-margin-bottom="0"
     inkscape:lockguides="false"
     showguides="true" />
  <metadata
     id="metadata5">
    <rdf:RDF>
      <cc:Work
         rdf:about="">
        <dc:format>image/svg+xml</dc:format>
        <dc:type
           rdf:resource="http://purl.org/dc/dcmitype/StillImage" />
        <dc:title></dc:title>
      </cc:Work>
    </rdf:RDF>
  </metadata>
  <g
     inkscape:label="Layer 1"
     inkscape:groupmode="layer"
     id="layer1"
     transform="translate(-8.6082319,-5.0351662)">
    <path
       style="display:none;fill:none;stroke:#000000;stroke-width:0.264583px;stroke-linecap:butt;stroke-linejoin:miter;stroke-opacity:1;marker-start:url(#Arrow2Mstart)"
       d="M 42.840808,74.874537 V 14.449552 h 0.265023"
       id="path1563" />
    <path
       style="fill:none;stroke:#000000;stroke-width:0.296007px;stroke-linecap:butt;stroke-linejoin:miter;stroke-opacity:1;marker-start:url(#marker1609)"
       d="M 51.585926,5.9488929 V 80.584397"
       id="path1605" />
    <path
       style="fill:none;stroke:#000000;stroke-width:0.307398px;stroke-linecap:butt;stroke-linejoin:miter;stroke-opacity:1;marker-start:url(#marker1609-7)"
       d="M 89.098127,43.074455 H 8.6082319"
       id="path1605-7" />
    <text
       xml:space="preserve"
       style="font-style:normal;font-weight:normal;font-size:4.23333px;line-height:1.25;font-family:sans-serif;fill:#000000;fill-opacity:1;stroke:none;stroke-width:0.264583"
       x="85.801926"
       y="46.409039"
       id="text1756"><tspan
         sodipodi:role="line"
         id="tspan1754"
         x="85.801926"
         y="46.409039"
         style="font-size:3.52778px;stroke-width:0.264583">\(x\)</tspan></text>
    <text
       xml:space="preserve"
       style="font-style:normal;font-weight:normal;font-size:4.23333px;line-height:1.25;font-family:sans-serif;fill:#000000;fill-opacity:1;stroke:none;stroke-width:0.264583"
       x="48.050751"
       y="7.7154446"
       id="text1756-8"><tspan
         sodipodi:role="line"
         x="48.050751"
         y="7.7154446"
         style="font-size:3.52777px;stroke-width:0.264583"
         id="tspan1776">\(y\)</tspan></text>
    <circle
       style="stroke-width:0.264999;stroke-miterlimit:4;stroke-dasharray:0.264999, 0.264999;stroke-dashoffset:0;paint-order:stroke fill markers"
       id="path3142"
       cx="75.079025"
       cy="16.270662"
       r="0.3809689" />
    <path
       style="fill:none;stroke:#000000;stroke-width:0.264583px;stroke-linecap:butt;stroke-linejoin:miter;stroke-opacity:1;marker-start:url(#marker3155)"
       d="M 74.87653,16.506829 51.42901,43.282174"
       id="path3151" />
    <path
       style="fill:none;stroke:#000000;stroke-width:0.264583px;stroke-linecap:butt;stroke-linejoin:miter;stroke-opacity:1;marker-start:url(#marker3155-8)"
       d="M 74.876532,16.506828 51.429011,43.282173"
       id="path3151-8" />
    <path
       style="fill:none;stroke:#000000;stroke-width:0.264583px;stroke-linecap:butt;stroke-linejoin:miter;stroke-opacity:1;marker-start:url(#marker3155-33)"
       d="M 75.064475,69.857046 51.616954,43.081701"
       id="path3151-7" />
    <path
       style="fill:none;stroke:#000000;stroke-width:0.264583px;stroke-linecap:butt;stroke-linejoin:miter;stroke-opacity:1;marker-start:url(#marker3155-33-1)"
       d="M 27.981489,70.057518 51.429011,43.282173"
       id="path3151-7-4" />
    <path
       style="fill:none;stroke:#000000;stroke-width:0.264583px;stroke-linecap:butt;stroke-linejoin:miter;stroke-opacity:1;marker-start:url(#marker3155-33-1-4)"
       d="M 28.169431,16.306355 51.616954,43.081701"
       id="path3151-7-4-1" />
    <text
       xml:space="preserve"
       style="font-size:3.52777px;line-height:1.25;font-family:sans-serif;stroke-width:0.264583"
       x="57.935406"
       y="41.038048"
       id="text3564-6"><tspan
         sodipodi:role="line"
         id="tspan3562-8"
         x="57.935406"
         y="41.038048"
         style="stroke-width:0.264583">\(\theta\)</tspan></text>
    <path
       style="fill:none;stroke:#000000;stroke-width:0.265;stroke-miterlimit:4;stroke-dasharray:0.265, 0.265;stroke-dashoffset:0;stop-color:#000000"
       id="path10272"
       transform="scale(1,-1)"
       sodipodi:type="arc"
       sodipodi:cx="51.679749"
       sodipodi:cy="-43.016609"
       sodipodi:rx="12.600053"
       sodipodi:ry="12.600053"
       sodipodi:start="0"
       sodipodi:end="2.3007395"
       sodipodi:arc-type="arc"
       d="m 64.279801,-43.016609 a 12.600053,12.600053 0 0 1 -7.457342,11.502776 12.600053,12.600053 0 0 1 -13.54477,-2.113062"
       sodipodi:open="true"
       clip-path="url(#clipPath12076)" />
    <path
       style="fill:none;stroke:#000000;stroke-width:0.265;stroke-miterlimit:4;stroke-dasharray:0.265, 0.265;stroke-dashoffset:0;stop-color:#000000"
       id="path10272-3"
       transform="scale(1,-1)"
       d="m 56.470269,-43.081699 a 4.8533139,4.8533139 0 0 1 -1.661095,3.655734 l -3.192219,-3.655734 z"
       sodipodi:type="arc"
       sodipodi:arc-type="slice"
       sodipodi:start="0"
       sodipodi:end="0.85298183"
       sodipodi:ry="4.8533139"
       sodipodi:rx="4.8533139"
       sodipodi:cy="-43.081699"
       sodipodi:cx="51.616955"
       clip-path="url(#clipPath12277)" />
    <path
       style="fill:none;stroke:#000000;stroke-width:0.265;stroke-miterlimit:4;stroke-dasharray:0.265, 0.265;stroke-dashoffset:0;stop-color:#000000"
       id="path10272-8"
       transform="scale(1,-1)"
       sodipodi:type="arc"
       sodipodi:cx="51.660564"
       sodipodi:cy="-43.06242"
       sodipodi:rx="21.74493"
       sodipodi:ry="21.74493"
       sodipodi:start="0"
       sodipodi:end="3.9919872"
       sodipodi:arc-type="arc"
       d="M 73.405495,-43.06242 A 21.74493,21.74493 0 0 1 56.83222,-21.941436 21.74493,21.74493 0 0 1 32.375612,-33.015898 21.74493,21.74493 0 0 1 37.315724,-59.404621"
       sodipodi:open="true"
       clip-path="url(#clipPath11883)" />
    <path
       style="fill:none;stroke:#000000;stroke-width:0.265;stroke-miterlimit:4;stroke-dasharray:0.265, 0.265;stroke-dashoffset:0;stop-color:#000000"
       id="path10272-8-5"
       transform="scale(1,-1)"
       sodipodi:type="arc"
       sodipodi:cx="51.660908"
       sodipodi:cy="-43.059978"
       sodipodi:rx="30.263304"
       sodipodi:ry="30.263304"
       sodipodi:start="0"
       sodipodi:end="5.4294556"
       sodipodi:arc-type="slice"
       d="M 81.924212,-43.059978 A 30.263304,30.263304 0 0 1 58.07115,-13.48336 30.263304,30.263304 0 0 1 24.113184,-30.530395 a 30.263304,30.263304 0 0 1 9.467401,-36.798277 30.263304,30.263304 0 0 1 37.968655,1.45813 l -19.888332,22.810564 z"
       clip-path="url(#clipPath11692)" />
    <text
       xml:space="preserve"
       style="font-size:3.52777px;line-height:1.25;font-family:sans-serif;stroke-width:0.264583"
       x="57.69136"
       y="75.770836"
       id="text3564-6-6"><tspan
         sodipodi:role="line"
         id="tspan3562-8-0"
         x="57.69136"
         y="75.770836"
         style="stroke-width:0.264583">\(2\uppi-\theta\)</tspan></text>
    <text
       xml:space="preserve"
       style="font-size:3.52777px;line-height:1.25;font-family:sans-serif;stroke-width:0.264583"
       x="32.535892"
       y="50.901978"
       id="text3564-6-6-9"><tspan
         sodipodi:role="line"
         id="tspan3562-8-0-9"
         x="32.535892"
         y="50.901978"
         style="stroke-width:0.264583">\(\uppi+\theta\)</tspan></text>
    <text
       xml:space="preserve"
       style="font-size:3.52777px;line-height:1.25;font-family:sans-serif;stroke-width:0.264583"
       x="41.85833"
       y="29.212563"
       id="text3564-6-6-9-8"><tspan
         sodipodi:role="line"
         id="tspan3562-8-0-9-2"
         x="41.85833"
         y="29.212563"
         style="stroke-width:0.264583">\(\uppi-\theta\)</tspan></text>
    <text
       xml:space="preserve"
       style="font-size:3.52777px;line-height:1.25;font-family:sans-serif;stroke-width:0.264583"
       x="8.6612587"
       y="41.96991"
       id="text3564-6-4"><tspan
         sodipodi:role="line"
         id="tspan3562-8-7"
         x="8.6612587"
         y="41.96991"
         style="stroke-width:0.264583">\(\uppi\)</tspan></text>
    <text
       xml:space="preserve"
       style="font-size:3.52777px;line-height:1.25;font-family:sans-serif;stroke-width:0.264583"
       x="85.429092"
       y="40.926533"
       id="text3564-6-4-0"><tspan
         sodipodi:role="line"
         id="tspan3562-8-7-4"
         x="85.429092"
         y="40.926533"
         style="stroke-width:0.264583">\(2\uppi\)</tspan></text>
    <path
       style="fill:none;stroke:#000000;stroke-width:0.264583px;stroke-linecap:butt;stroke-linejoin:miter;stroke-opacity:1;marker-start:url(#marker10933)"
       d="M 71.153032,66.206457 69.91706,67.203226"
       id="path11616"
       sodipodi:nodetypes="cc" />
    <path
       style="fill:none;stroke:#000000;stroke-width:0.264583px;stroke-linecap:butt;stroke-linejoin:miter;stroke-opacity:1;marker-start:url(#marker10933-4)"
       d="M 36.941365,59.041631 35.869044,58.001796"
       id="path11616-8"
       sodipodi:nodetypes="cc" />
    <path
       style="fill:none;stroke:#000000;stroke-width:0.264583px;stroke-linecap:butt;stroke-linejoin:miter;stroke-opacity:1;marker-start:url(#marker10933-4-2)"
       d="m 43.741518,33.2543 1.115387,-0.841731"
       id="path11616-8-5"
       sodipodi:nodetypes="cc" />
    <path
       style="fill:none;stroke:#000000;stroke-width:0.264583px;stroke-linecap:butt;stroke-linejoin:miter;stroke-opacity:1;marker-start:url(#marker10933-0)"
       d="m 55.152848,39.803071 0.779472,1.057062"
       id="path11616-6"
       sodipodi:nodetypes="cc" />
    <text
       xml:space="preserve"
       style="font-size:3.52777px;line-height:1.25;font-family:sans-serif;stroke-width:0.264583"
       x="82.696648"
       y="9.1664782"
       id="text3564-6-4-9"><tspan
         sodipodi:role="line"
         id="tspan3562-8-7-8"
         x="82.696648"
         y="9.1664782"
         style="stroke-width:0.264583">\(\rom{1}\)</tspan></text>
    <text
       xml:space="preserve"
       style="font-size:3.52777px;line-height:1.25;font-family:sans-serif;stroke-width:0.264583"
       x="9.6566257"
       y="9.1664782"
       id="text3564-6-4-9-5"><tspan
         sodipodi:role="line"
         id="tspan3562-8-7-8-9"
         x="9.6566257"
         y="9.1664782"
         style="stroke-width:0.264583">\(\rom{2}\)</tspan></text>
    <text
       xml:space="preserve"
       style="font-size:3.52777px;line-height:1.25;font-family:sans-serif;stroke-width:0.264583"
       x="9.6566257"
       y="78.347786"
       id="text3564-6-4-9-5-1"><tspan
         sodipodi:role="line"
         id="tspan3562-8-7-8-9-2"
         x="9.6566257"
         y="78.347786"
         style="stroke-width:0.264583">\(\rom{3}\)</tspan></text>
    <text
       xml:space="preserve"
       style="font-size:3.52777px;line-height:1.25;font-family:sans-serif;stroke-width:0.264583"
       x="82.696648"
       y="78.347786"
       id="text3564-6-4-9-8"
       inkscape:transform-center-y="-57.329527"><tspan
         sodipodi:role="line"
         id="tspan3562-8-7-8-0"
         x="82.696648"
         y="78.347786"
         style="stroke-width:0.264583">\(\rom{4}\)</tspan></text>
  </g>
</svg>
