<?xml version="1.0" encoding="UTF-8" standalone="no"?>
<svg
   xmlns:dc="http://purl.org/dc/elements/1.1/"
   xmlns:cc="http://creativecommons.org/ns#"
   xmlns:rdf="http://www.w3.org/1999/02/22-rdf-syntax-ns#"
   xmlns:svg="http://www.w3.org/2000/svg"
   xmlns="http://www.w3.org/2000/svg"
   xmlns:sodipodi="http://sodipodi.sourceforge.net/DTD/sodipodi-0.dtd"
   xmlns:inkscape="http://www.inkscape.org/namespaces/inkscape"
   id="svg8"
   version="1.1"
   viewBox="0 0 82.858826 51.234135"
   height="51.234135mm"
   width="82.858826mm"
   sodipodi:docname="Método del paralelogramo suma.svg"
   inkscape:version="1.0.1 (3bc2e813f5, 2020-09-07)">
  <defs
     id="defs2">
    <marker
       style="overflow:visible"
       id="marker7990"
       refX="0"
       refY="0"
       orient="auto"
       inkscape:stockid="Arrow2Mstart"
       inkscape:isstock="true">
      <path
         transform="scale(0.6)"
         d="M 8.7185878,4.0337352 -2.2072895,0.01601326 8.7185884,-4.0017078 c -1.7454984,2.3720609 -1.7354408,5.6174519 -6e-7,8.035443 z"
         style="fill:#000000;fill-opacity:1;fill-rule:evenodd;stroke:#000000;stroke-width:0.625;stroke-linejoin:round;stroke-opacity:1"
         id="path7988" />
    </marker>
    <marker
       style="overflow:visible"
       id="marker7326"
       refX="0"
       refY="0"
       orient="auto"
       inkscape:stockid="Arrow2Mstart"
       inkscape:isstock="true"
       inkscape:collect="always">
      <path
         transform="scale(0.6)"
         d="M 8.7185878,4.0337352 -2.2072895,0.01601326 8.7185884,-4.0017078 c -1.7454984,2.3720609 -1.7354408,5.6174519 -6e-7,8.035443 z"
         style="fill:#000000;fill-opacity:1;fill-rule:evenodd;stroke:#000000;stroke-width:0.625;stroke-linejoin:round;stroke-opacity:1"
         id="path7324" />
    </marker>
    <inkscape:path-effect
       effect="simplify"
       id="path-effect5616"
       is_visible="true"
       lpeversion="1"
       steps="1"
       threshold="0.000408163"
       smooth_angles="360"
       helper_size="0"
       simplify_individual_paths="false"
       simplify_just_coalesce="false" />
    <inkscape:path-effect
       effect="simplify"
       id="path-effect5612"
       is_visible="true"
       lpeversion="1"
       steps="1"
       threshold="0.000408163"
       smooth_angles="360"
       helper_size="0"
       simplify_individual_paths="false"
       simplify_just_coalesce="false" />
    <marker
       style="overflow:visible"
       id="marker4833"
       refX="0"
       refY="0"
       orient="auto"
       inkscape:stockid="Arrow2Mstart"
       inkscape:isstock="true"
       inkscape:collect="always">
      <path
         transform="scale(0.6)"
         d="M 8.7185878,4.0337352 -2.2072895,0.01601326 8.7185884,-4.0017078 c -1.7454984,2.3720609 -1.7354408,5.6174519 -6e-7,8.035443 z"
         style="fill:#000000;fill-opacity:1;fill-rule:evenodd;stroke:#000000;stroke-width:0.625;stroke-linejoin:round;stroke-opacity:1"
         id="path4831" />
    </marker>
    <marker
       style="overflow:visible"
       id="marker1609"
       refX="0"
       refY="0"
       orient="auto"
       inkscape:stockid="Arrow2Mstart"
       inkscape:isstock="true"
       inkscape:collect="always">
      <path
         transform="scale(0.6)"
         d="M 8.7185878,4.0337352 -2.2072895,0.01601326 8.7185884,-4.0017078 c -1.7454984,2.3720609 -1.7354408,5.6174519 -6e-7,8.035443 z"
         style="fill:#000000;fill-opacity:1;fill-rule:evenodd;stroke:#000000;stroke-width:0.625;stroke-linejoin:round;stroke-opacity:1"
         id="path1607" />
    </marker>
    <marker
       style="overflow:visible"
       id="Arrow2Mstart"
       refX="0"
       refY="0"
       orient="auto"
       inkscape:stockid="Arrow2Mstart"
       inkscape:isstock="true"
       inkscape:collect="always">
      <path
         transform="scale(0.6)"
         d="M 8.7185878,4.0337352 -2.2072895,0.01601326 8.7185884,-4.0017078 c -1.7454984,2.3720609 -1.7354408,5.6174519 -6e-7,8.035443 z"
         style="fill:#000000;fill-opacity:1;fill-rule:evenodd;stroke:#000000;stroke-width:0.625;stroke-linejoin:round;stroke-opacity:1"
         id="path859" />
    </marker>
    <marker
       style="overflow:visible"
       id="marker1137"
       refX="0"
       refY="0"
       orient="auto"
       inkscape:stockid="Arrow2Mstart"
       inkscape:isstock="true">
      <path
         transform="scale(0.6)"
         d="M 8.7185878,4.0337352 -2.2072895,0.01601326 8.7185884,-4.0017078 c -1.7454984,2.3720609 -1.7354408,5.6174519 -6e-7,8.035443 z"
         style="fill:#000000;fill-opacity:1;fill-rule:evenodd;stroke:#000000;stroke-width:0.625;stroke-linejoin:round;stroke-opacity:1"
         id="path1135" />
    </marker>
    <marker
       style="overflow:visible"
       id="Arrow2Lstart"
       refX="0"
       refY="0"
       orient="auto"
       inkscape:stockid="Arrow2Lstart"
       inkscape:isstock="true">
      <path
         transform="matrix(1.1,0,0,1.1,1.1,0)"
         d="M 8.7185878,4.0337352 -2.2072895,0.01601326 8.7185884,-4.0017078 c -1.7454984,2.3720609 -1.7354408,5.6174519 -6e-7,8.035443 z"
         style="fill:#000000;fill-opacity:1;fill-rule:evenodd;stroke:#000000;stroke-width:0.625;stroke-linejoin:round;stroke-opacity:1"
         id="path853" />
    </marker>
    <g
       id="g3422">
      <symbol
         overflow="visible"
         id="symbol1429">
        <path
           style="stroke:none"
           d=""
           id="path7680" />
      </symbol>
      <symbol
         overflow="visible"
         id="symbol5614">
        <path
           style="stroke:none"
           d="m 7.375,-4.34375 c 0,-1.609375 -1.0625,-2.6875 -2.546875,-2.6875 -2.140625,0 -4.34375,2.265625 -4.34375,4.59375 0,1.65625 1.125,2.65625 2.5625,2.65625 2.109375,0 4.328125,-2.1875 4.328125,-4.5625 z m -4.28125,4.296875 c -0.984375,0 -1.671875,-0.796875 -1.671875,-2.109375 0,-0.453125 0.140625,-1.90625 0.90625,-3.0625 0.6875,-1.046875 1.65625,-1.5625 2.453125,-1.5625 0.8125,0 1.703125,0.5625 1.703125,2.046875 0,0.71875 -0.265625,2.265625 -1.25,3.5 C 4.75,-0.625 3.9375,-0.046875 3.09375,-0.046875 Z m 0,0"
           id="path1501" />
      </symbol>
    </g>
    <g
       id="g3384">
      <symbol
         overflow="visible"
         id="symbol9594">
        <path
           style="stroke:none"
           d=""
           id="path4327" />
      </symbol>
      <symbol
         overflow="visible"
         id="symbol4723">
        <path
           style="stroke:none"
           d="M 3.328125,-3.015625 C 3.390625,-3.265625 3.625,-4.1875 4.3125,-4.1875 c 0.046875,0 0.296875,0 0.5,0.125 C 4.53125,-4 4.34375,-3.765625 4.34375,-3.515625 c 0,0.15625 0.109375,0.34375 0.375,0.34375 0.21875,0 0.53125,-0.171875 0.53125,-0.578125 0,-0.515625 -0.578125,-0.65625 -0.921875,-0.65625 -0.578125,0 -0.921875,0.53125 -1.046875,0.75 -0.25,-0.65625 -0.78125,-0.75 -1.078125,-0.75 -1.03125,0 -1.609375,1.28125 -1.609375,1.53125 0,0.109375 0.109375,0.109375 0.125,0.109375 0.078125,0 0.109375,-0.03125 0.125,-0.109375 0.34375,-1.0625 1,-1.3125 1.34375,-1.3125 0.1875,0 0.53125,0.09375 0.53125,0.671875 0,0.3125 -0.171875,0.96875 -0.53125,2.375 -0.15625,0.609375 -0.515625,1.03125 -0.953125,1.03125 -0.0625,0 -0.28125,0 -0.5,-0.125 0.25,-0.0625 0.46875,-0.265625 0.46875,-0.546875 0,-0.265625 -0.21875,-0.34375 -0.359375,-0.34375 -0.3125,0 -0.546875,0.25 -0.546875,0.578125 0,0.453125 0.484375,0.65625 0.921875,0.65625 0.671875,0 1.03125,-0.703125 1.046875,-0.75 0.125,0.359375 0.484375,0.75 1.078125,0.75 1.03125,0 1.59375,-1.28125 1.59375,-1.53125 0,-0.109375 -0.078125,-0.109375 -0.109375,-0.109375 -0.09375,0 -0.109375,0.046875 -0.140625,0.109375 -0.328125,1.078125 -1,1.3125 -1.3125,1.3125 -0.390625,0 -0.546875,-0.3125 -0.546875,-0.65625 0,-0.21875 0.046875,-0.4375 0.15625,-0.875 z m 0,0"
           id="path1722" />
      </symbol>
    </g>
    <g
       id="g3727">
      <symbol
         overflow="visible"
         id="symbol4469">
        <path
           style="stroke:none"
           d=""
           id="path4050" />
      </symbol>
      <symbol
         overflow="visible"
         id="symbol7177">
        <path
           style="stroke:none"
           d="m 4.84375,-3.796875 c 0.046875,-0.140625 0.046875,-0.15625 0.046875,-0.234375 0,-0.171875 -0.140625,-0.265625 -0.296875,-0.265625 -0.09375,0 -0.25,0.0625 -0.34375,0.203125 -0.015625,0.0625 -0.109375,0.359375 -0.140625,0.546875 -0.078125,0.25 -0.140625,0.53125 -0.203125,0.796875 l -0.453125,1.796875 c -0.03125,0.140625 -0.46875,0.84375 -1.125,0.84375 -0.5,0 -0.609375,-0.4375 -0.609375,-0.8125 C 1.71875,-1.375 1.890625,-2 2.21875,-2.875 2.375,-3.28125 2.421875,-3.390625 2.421875,-3.59375 c 0,-0.4375 -0.3125,-0.8125 -0.8125,-0.8125 -0.953125,0 -1.3125,1.453125 -1.3125,1.53125 0,0.109375 0.09375,0.109375 0.109375,0.109375 0.109375,0 0.109375,-0.03125 0.15625,-0.1875 0.28125,-0.9375 0.671875,-1.234375 1.015625,-1.234375 0.078125,0 0.25,0 0.25,0.3125 0,0.25 -0.109375,0.515625 -0.171875,0.703125 -0.40625,1.0625 -0.578125,1.625 -0.578125,2.09375 0,0.890625 0.625,1.1875 1.21875,1.1875 0.390625,0 0.71875,-0.171875 1,-0.453125 -0.125,0.515625 -0.25,1.015625 -0.640625,1.546875 -0.265625,0.328125 -0.640625,0.625 -1.09375,0.625 -0.140625,0 -0.59375,-0.03125 -0.765625,-0.421875 0.15625,0 0.296875,0 0.421875,-0.125 C 1.328125,1.203125 1.421875,1.0625 1.421875,0.875 1.421875,0.5625 1.15625,0.53125 1.0625,0.53125 0.828125,0.53125 0.5,0.6875 0.5,1.171875 c 0,0.5 0.4375,0.875 1.0625,0.875 1.015625,0 2.046875,-0.90625 2.328125,-2.03125 z m 0,0"
           id="path3007" />
      </symbol>
    </g>
    <g
       id="g5283">
      <symbol
         overflow="visible"
         id="symbol2180">
        <path
           style="stroke:none"
           d=""
           id="path8181" />
      </symbol>
      <symbol
         overflow="visible"
         id="symbol5529">
        <path
           style="stroke:none"
           d="m 4.84375,-3.796875 c 0.046875,-0.140625 0.046875,-0.15625 0.046875,-0.234375 0,-0.171875 -0.140625,-0.265625 -0.296875,-0.265625 -0.09375,0 -0.25,0.0625 -0.34375,0.203125 -0.015625,0.0625 -0.109375,0.359375 -0.140625,0.546875 -0.078125,0.25 -0.140625,0.53125 -0.203125,0.796875 l -0.453125,1.796875 c -0.03125,0.140625 -0.46875,0.84375 -1.125,0.84375 -0.5,0 -0.609375,-0.4375 -0.609375,-0.8125 C 1.71875,-1.375 1.890625,-2 2.21875,-2.875 2.375,-3.28125 2.421875,-3.390625 2.421875,-3.59375 c 0,-0.4375 -0.3125,-0.8125 -0.8125,-0.8125 -0.953125,0 -1.3125,1.453125 -1.3125,1.53125 0,0.109375 0.09375,0.109375 0.109375,0.109375 0.109375,0 0.109375,-0.03125 0.15625,-0.1875 0.28125,-0.9375 0.671875,-1.234375 1.015625,-1.234375 0.078125,0 0.25,0 0.25,0.3125 0,0.25 -0.109375,0.515625 -0.171875,0.703125 -0.40625,1.0625 -0.578125,1.625 -0.578125,2.09375 0,0.890625 0.625,1.1875 1.21875,1.1875 0.390625,0 0.71875,-0.171875 1,-0.453125 -0.125,0.515625 -0.25,1.015625 -0.640625,1.546875 -0.265625,0.328125 -0.640625,0.625 -1.09375,0.625 -0.140625,0 -0.59375,-0.03125 -0.765625,-0.421875 0.15625,0 0.296875,0 0.421875,-0.125 C 1.328125,1.203125 1.421875,1.0625 1.421875,0.875 1.421875,0.5625 1.15625,0.53125 1.0625,0.53125 0.828125,0.53125 0.5,0.6875 0.5,1.171875 c 0,0.5 0.4375,0.875 1.0625,0.875 1.015625,0 2.046875,-0.90625 2.328125,-2.03125 z m 0,0"
           id="path7871" />
      </symbol>
    </g>
    <marker
       style="overflow:visible"
       id="marker1609-7"
       refX="0"
       refY="0"
       orient="auto"
       inkscape:stockid="Arrow2Mstart"
       inkscape:isstock="true">
      <path
         transform="scale(0.6)"
         d="M 8.7185878,4.0337352 -2.2072895,0.01601326 8.7185884,-4.0017078 c -1.7454984,2.3720609 -1.7354408,5.6174519 -6e-7,8.035443 z"
         style="fill:#000000;fill-opacity:1;fill-rule:evenodd;stroke:#000000;stroke-width:0.625;stroke-linejoin:round;stroke-opacity:1"
         id="path1607-2" />
    </marker>
    <clipPath
       clipPathUnits="userSpaceOnUse"
       id="clipPath6293">
      <path
         id="path6295"
         style="fill:#ff0000;fill-opacity:1;fill-rule:nonzero;stroke:none;stroke-width:0.264583"
         d="M 50.814208,5.5016178 V 80.584373 h 1.53789 v -22.54281 c -0.120618,-0.0094 -0.116673,-0.07487 -0.06408,-0.161231 -0.0026,-0.0011 -0.0026,5.29e-4 -0.0057,-0.0011 -0.0039,-0.0019 -0.0031,-0.0085 -0.0036,-0.01291 -0.0019,-0.01585 0.0036,-0.03181 0,-0.04754 8e-6,-0.0043 -1.4e-5,-0.0086 0,-0.01291 2.64e-4,0.0035 0.0021,0.0075 -5.3e-4,0.0093 -5.29e-4,2.65e-4 -0.0011,2.09e-4 -0.0016,5.3e-4 -0.0026,0.0019 -0.0063,7.93e-4 -0.0093,0.0021 5.29e-4,0.02503 0.0013,0.05045 0,0.07545 -5.29e-4,0.0084 0.0049,0.02 -0.0021,0.02479 -0.01183,0.0081 -0.02844,0.0091 -0.04237,0.0057 -0.0054,-0.0013 -0.0019,-0.01103 -0.0026,-0.01654 2.64e-4,-0.02286 7.93e-4,-0.04072 0.0011,-0.05788 -0.0071,0.0039 -0.01413,0.0084 -0.0217,0.01138 -0.0067,0.0026 -0.01397,0.0019 -0.02119,0.0026 h -5.29e-4 c -7.94e-4,5.29e-4 -0.0019,0.0011 -0.0026,0.0016 -1.51e-4,-7e-6 2.51e-4,0.0013 0,0.0011 l -5.29e-4,-5.29e-4 c -0.0094,0.0067 -0.01987,0.01185 -0.02998,0.01757 -0.0024,-0.0044 -0.0049,-0.009 -0.0072,-0.01344 -0.01453,0.0026 -0.02923,0.0029 -0.04341,0 -0.0026,0.0019 -0.0052,0.0034 -0.0078,0.0052 -2.59e-4,5.29e-4 -2.3e-4,0.0011 -5.29e-4,0.0016 -0.0047,0.0075 -0.01008,0.01453 -0.01447,0.02222 -0.0016,0.0027 -0.0013,0.0074 -0.0041,0.0088 -0.0091,0.0043 -0.01976,0.01005 -0.02946,0.0072 -0.0019,-5.29e-4 -0.0013,-0.0027 -0.0026,-0.0036 -0.0016,0.0013 -0.0035,0.0024 -0.0052,0.0036 -0.0046,0.0047 -0.0081,0.0105 -0.01291,0.01498 -0.0082,0.0076 -0.01516,0.02074 -0.02635,0.02066 -0.0011,-8e-6 -0.0021,-0.0011 -0.0031,-0.0011 -0.0034,0.0055 -0.0069,0.01365 -0.01035,0.01035 -0.0062,-0.006 -0.0081,-0.01032 -0.01085,-0.01498 -0.0076,-0.0035 -0.01386,-0.0086 -0.01757,-0.0155 -0.0044,-0.0083 0.01336,-0.01315 0.02016,-0.01963 0.0038,-0.003 0.0076,-0.0058 0.01138,-0.0088 -0.0021,-0.0051 -0.0034,-0.01214 -0.0047,-0.0217 -5.29e-4,-0.0032 -0.0013,-0.0035 -0.0016,-0.0072 -2.46e-4,-0.0031 0.01487,-0.02196 0.01757,-0.02687 0.0031,-0.0055 0.0051,-0.01135 0.0078,-0.01704 0.0094,-0.02228 0.0064,-0.01349 0.0155,-0.04496 0.0024,-0.008 0.0053,-0.01558 0.0067,-0.02376 0,-0.0077 3e-6,-0.01378 0,-0.02066 -5.29e-4,-0.0079 -0.0013,-0.01585 -0.0016,-0.02376 -5.3e-4,-0.0118 0.0011,-0.02339 0,-0.03514 -0.0021,-0.02326 -0.0048,-0.04695 -0.0098,-0.06976 -0.0051,-0.02318 -0.01368,-0.04504 -0.02066,-0.0677 -0.0245,-0.07908 -0.01482,-0.05387 -0.03256,-0.09819 l -5.3e-4,5.29e-4 c -0.01521,-0.03806 0.02355,-0.05307 0.03876,-0.01497 0.01416,0.0354 0.01609,0.04496 0.02635,0.07906 -3e-6,-0.0062 -5e-6,-0.01482 0,-0.0186 0,-2.65e-4 -1.3e-5,-0.0011 0,-0.0016 7.9e-5,-0.0011 -8.2e-5,-0.0021 0,-0.0031 1.22e-4,-0.0011 -5.29e-4,-0.0033 5.29e-4,-0.0031 h 5.29e-4 c 1.88e-4,-0.0013 2.17e-4,-0.0036 5.3e-4,-0.0036 0.01953,1.4e-4 0.02862,-7.94e-4 0.03411,-5.29e-4 7.94e-4,-0.02273 0.0013,-0.04549 0.0016,-0.06821 -2.65e-4,-0.0038 -0.0013,-0.0076 -0.0016,-0.01138 -5e-5,-0.0069 -1.4e-4,-0.01326 0,-0.02016 9.8e-5,-0.0035 7.94e-4,-0.01376 0.0016,-0.0181 2.62e-4,-0.0016 -1.01e-4,-0.0048 0.0016,-0.0047 0.03215,0.0055 0.03704,0.0054 0.03824,0.01188 7.94e-4,-2.7e-5 5.29e-4,4.2e-5 0.0016,0 -1.72e-4,0.0013 -2.54e-4,0.0026 -5.29e-4,0.0036 -2.4e-5,0.0016 0.0011,0.0011 0.0011,0.0036 6.3e-5,0.0097 -5.29e-4,0.01929 -5.29e-4,0.02894 0.0019,0.02302 0.0051,0.04574 0.0078,0.06873 7.94e-4,4.5e-5 7.94e-4,-5.29e-4 0.0016,-5.29e-4 0.0064,5.29e-4 0.01042,0.0074 0.01497,0.01188 0.0016,0.0016 0.0026,0.0037 0.0031,0.0057 0.0036,0.01307 0.0029,0.01376 0.0026,0.02479 8e-5,0.0013 5.3e-4,0.0097 0.0011,0.01757 0.0013,-0.01625 0.0049,-0.03231 0.0052,-0.04857 -5.29e-4,-0.0016 -0.0011,-0.0035 -0.0011,-0.0052 1.77e-4,-0.003 0.0011,-0.0036 0.0011,-0.0062 -7.94e-4,-0.0026 -0.0026,-0.0061 -5.29e-4,-0.0062 0.0013,-4.5e-5 2.17e-4,5.29e-4 0.0016,5.29e-4 7.94e-4,-0.01103 0.009,-0.014 0.02687,-0.0078 7.93e-4,-0.0033 0.0019,-0.0055 0.0026,-0.0093 0.0026,-0.014 0.0065,-0.02522 0.01498,-0.03617 0.0084,-0.01087 0.01553,-0.0109 0.03462,0 0.0065,-2.64e-4 0.01487,0.006 0.02997,0.01963 5.29e-4,5.3e-4 1.6e-5,0.0019 0,0.0026 0.0013,-0.02611 0.0021,-0.03073 0.0083,-0.05478 0.01455,0.0035 0.03137,0.0013 0.04341,0.01035 0.0065,0.0048 0.0024,0.01574 0.0031,0.02379 1.27e-4,0.0016 -1.19e-4,0.003 0,0.0047 0.0029,0.0013 0.0028,-10e-6 0.0062,0.0016 0.0029,0.0013 -2.65e-4,0.0056 -0.0016,0.0093 0.0033,-5.29e-4 0.0065,-7.93e-4 0.0057,-0.0021 0.0011,7.93e-4 0.0019,0.0019 0.0021,0.0031 0.0038,0.02305 0.0021,0.02617 0.0021,0.03152 0.0028,0.0019 0.0057,0.0036 0.0083,0.0057 0.0011,7.94e-4 -5.29e-4,0.0027 -5.29e-4,0.0041 -1.43e-4,0.004 -1.8e-4,0.0079 0,0.01188 2.17e-4,0.0047 5.29e-4,0.0093 0.0011,0.01394 0.0011,-0.0019 0.0024,-0.0034 0.0036,-0.0052 0.0088,-0.01204 0.01532,-0.02035 0.02429,-0.02326 V 5.5016178 Z m 0.977717,52.0469532 c 0.0066,0.0045 0.0076,0.0056 0.0072,0.01085 -8e-6,2.64e-4 -5.29e-4,0.0024 -5.29e-4,0.0026 1.48e-4,0.0019 0.0013,0.0032 5.29e-4,0.0052 -2.09e-4,5.29e-4 -7.93e-4,0.0011 -0.0011,0.0016 -6.1e-5,2.65e-4 4.5e-5,7.94e-4 0,0.0011 0,0 -5.29e-4,5.29e-4 -5.29e-4,5.29e-4 -2.17e-4,0.0019 -2.65e-4,0.0035 -0.0011,0.0052 -2.02e-4,5.29e-4 -5.3e-4,0.0016 -5.3e-4,0.0021 -5.29e-4,0.0036 0.003,0.0098 -0.0016,0.01241 -2.62e-4,2.64e-4 -7.94e-4,7.94e-4 -0.0011,0.0011 -0.0016,0.0042 -5.3e-4,0.0037 -0.0011,0.0093 -7.94e-4,0.0096 -2.64e-4,0.008 -0.0031,0.01498 -0.0013,0.0024 -0.0026,0.0048 -0.0041,0.0072 -7.94e-4,0.0013 -0.0019,0.0021 -0.0026,0.0031 -0.0052,0.007 -0.0067,0.0092 -0.01085,0.01707 -0.0013,0.0029 -0.0027,0.0058 -0.0041,0.0088 -5.6e-5,5.3e-4 8.5e-5,0.0011 0,0.0016 -1.51e-4,0.0011 -7.94e-4,0.0021 -0.0011,0.0031 -1.57e-4,0.0013 1e-5,0.0045 0,0.0057 2.64e-4,0.0037 6.3e-5,0.0076 0,0.01138 -4.5e-5,0.0013 -3e-6,0.0024 0,0.0036 1.42e-4,-5.29e-4 8.2e-5,-0.0016 5.29e-4,-0.0016 7.93e-4,1.01e-4 0.0011,0.0016 0.0016,0.0021 0,0 0,5.29e-4 0,5.29e-4 -0.0019,-5.29e-4 -0.0038,-0.0019 -0.0057,-0.0016 -0.0013,2.01e-4 -0.0021,0.0019 -0.0031,0.0026 -0.01199,0.0081 0.0231,-0.0011 0.01188,0.0083 -0.0013,0.0011 -0.0024,0.0028 -0.0041,0.0031 -0.0064,0.0013 -0.0079,-0.0044 -0.01035,-0.0088 -0.0041,0.0073 -0.0049,0.009 -0.0093,0.01757 h -5.29e-4 c -0.0065,0.01302 -0.01942,0.0062 -0.01291,-0.0067 0.0046,-0.0092 0.0049,-0.01042 0.0098,-0.01913 7.94e-4,-0.0013 0.0019,-0.0027 0.0026,-0.0041 0.0011,-0.0021 0.0013,-0.0041 0.0021,-0.0062 0,0 0,-5.29e-4 0,-5.29e-4 5.3e-4,-0.0027 0.0011,-0.0052 0.0016,-0.0078 5.29e-4,-0.0016 7.94e-4,-0.0035 0.0016,-0.0052 2.65e-4,-7.94e-4 7.94e-4,-0.0013 0.0011,-0.0021 -4.3e-5,-5.29e-4 2.6e-5,-0.0011 0,-0.0016 1.53e-4,-0.0019 2.64e-4,-0.0038 5.29e-4,-0.0057 7.94e-4,-0.0026 0.0011,-0.0039 0.0021,-0.0062 0.0016,-0.0036 2.64e-4,-0.0081 0.0011,-0.01188 1.1e-5,-0.0042 -5.29e-4,-0.0081 -5.29e-4,-0.01241 5e-6,-0.006 1.9e-4,-0.01209 0,-0.0181 -5.29e-4,-0.0062 -5.29e-4,-0.0086 0.0026,-0.01447 5.29e-4,-0.0011 -5.3e-4,0.0024 -0.0016,0.0031 -7.94e-4,5.29e-4 2.65e-4,-0.0016 5.29e-4,-0.0026 -1.29e-4,-0.0045 -5.8e-5,-0.01119 0,-0.0155 1.9e-5,-0.0013 -5.29e-4,-0.0026 0,-0.0036 0.0088,-0.0146 0.0086,-0.01262 0.0072,-0.0072 -2.65e-4,0.0011 7.94e-4,0.0013 5.29e-4,0.0026 -0.0011,0.0049 -0.0031,0.01087 0.0011,0.0098 -9e-5,-0.0048 -5.29e-4,-0.0097 -5.29e-4,-0.01447 h 5.29e-4 c 0.0011,3.9e-5 0.0021,5.29e-4 0.0031,5.29e-4 0.0049,7.1e-5 0.0097,4.2e-5 0.01447,-5.29e-4 0.0011,-1.01e-4 0.0069,-0.0011 0.0078,-5.3e-4 z m -0.0072,0.01497 c -0.0042,2.65e-4 -0.0082,5.29e-4 -0.01241,5.29e-4 5.3e-5,0.005 2.65e-4,0.0076 5.29e-4,0.01291 -0.0013,0.01064 2.65e-4,1.8e-5 -0.0036,0.0098 5.29e-4,-5.29e-4 0.0011,-0.0011 0.0016,-0.0016 1.51e-4,0.0016 5.29e-4,0.0035 5.29e-4,0.0052 2.44e-4,0.0063 6e-6,0.0123 0,0.0186 1.1e-5,0.0021 -5e-6,0.0045 0,0.0067 0.0026,-0.0032 0.0016,-2.51e-4 0.0052,-0.0078 5.29e-4,-0.0013 7.93e-4,-0.0024 0.0011,-0.0036 0.0016,-0.0084 -1.99e-4,-0.0027 5.29e-4,-0.01035 5.29e-4,-0.0045 0.0019,-0.0079 0.0041,-0.01138 -5.3e-4,-0.0033 -5.3e-4,-0.0063 0,-0.0098 0.0011,-0.0034 0.0016,-0.0063 0.0031,-0.0093 0,0 -5.29e-4,0 -5.29e-4,0 z m -0.03462,0.101285 c 2.9e-5,2.65e-4 -1.38e-4,7.94e-4 0,0.0011 5.29e-4,7.93e-4 0.0011,0.0011 0.0021,0.0021 -7.93e-4,-0.0011 -0.0013,-0.0021 -0.0021,-0.0031 z" />
    </clipPath>
    <clipPath
       clipPathUnits="userSpaceOnUse"
       id="clipPath6315">
      <path
         id="path6317"
         style="fill:#ff0000;fill-opacity:1;fill-rule:nonzero;stroke:none;stroke-width:0.264583"
         d="m 20.373171,42.967031 v 17.711063 h 31.396016 v -2.988963 c -5.29e-4,2.64e-4 -0.0011,7.93e-4 -0.0016,0.0011 -0.0063,0.0013 -0.0079,-0.0044 -0.01034,-0.0088 -0.0041,0.0073 -0.0049,0.009 -0.0093,0.01757 h -5.29e-4 c -0.0065,0.01302 -0.01942,0.0062 -0.01291,-0.0067 0.0046,-0.0092 0.0049,-0.01042 0.0098,-0.01913 7.94e-4,-0.0013 0.0019,-0.0027 0.0026,-0.0041 0.0011,-0.0021 0.0013,-0.0041 0.0021,-0.0062 0,0 0,-5.29e-4 0,-5.29e-4 5.29e-4,-0.0027 0.0011,-0.0052 0.0016,-0.0078 5.29e-4,-0.0016 7.94e-4,-0.0035 0.0016,-0.0052 2.64e-4,-7.94e-4 7.93e-4,-0.0013 0.0011,-0.0021 -4.2e-5,-5.29e-4 2.6e-5,-0.0011 0,-0.0016 1.53e-4,-0.0019 2.65e-4,-0.0038 5.29e-4,-0.0057 7.94e-4,-0.0026 0.0011,-0.0039 0.0021,-0.0062 0.0016,-0.0036 2.64e-4,-0.0081 0.0011,-0.01188 1.1e-5,-0.0042 -5.29e-4,-0.0081 -5.29e-4,-0.01241 5e-6,-0.006 1.9e-4,-0.01209 0,-0.0181 -5.29e-4,-0.0062 -5.29e-4,-0.0086 0.0026,-0.01447 5.29e-4,-0.0011 -5.29e-4,0.0024 -0.0016,0.0031 -7.93e-4,5.3e-4 2.65e-4,-0.0016 5.29e-4,-0.0026 -1.29e-4,-0.0045 -5.8e-5,-0.01119 0,-0.0155 1.9e-5,-0.0013 -5.29e-4,-0.0026 0,-0.0036 0.0088,-0.01461 0.0086,-0.01262 0.0072,-0.0072 -2.65e-4,0.0011 7.94e-4,0.0013 5.29e-4,0.0026 -0.0011,0.0049 -0.0031,0.01087 0.0011,0.0098 -9e-5,-0.0048 -5.3e-4,-0.0097 -5.3e-4,-0.01447 h 5.3e-4 c 7.93e-4,3.5e-5 0.0016,5.29e-4 0.0026,5.29e-4 v -14.58251 z m 31.396016,14.681274 c -5.29e-4,0.0011 -0.0011,0.0021 -0.0016,0.0031 -5.5e-5,5.29e-4 8.5e-5,0.0011 0,0.0016 -1.5e-4,0.0011 -7.93e-4,0.0021 -0.0011,0.0031 -1.56e-4,0.0013 1.1e-5,0.0045 0,0.0057 2.65e-4,0.0037 6.4e-5,0.0076 0,0.01138 -4.5e-5,0.0013 -3e-6,0.0024 0,0.0036 1.43e-4,-5.29e-4 8.2e-5,-0.0016 5.29e-4,-0.0016 7.94e-4,1.01e-4 0.0011,0.0016 0.0016,0.0021 0,0 0,5.29e-4 0,5.29e-4 -0.0019,-5.29e-4 -0.0038,-0.0019 -0.0057,-0.0016 -0.0013,2.01e-4 -0.0021,0.0019 -0.0031,0.0026 -0.0094,0.0064 0.0059,0.0038 0.0093,0.0062 z m -0.01913,0.01654 c 2.9e-5,2.64e-4 -1.38e-4,7.94e-4 0,0.0011 5.29e-4,7.94e-4 0.0011,0.0011 0.0021,0.0021 -7.94e-4,-0.0011 -0.0013,-0.0021 -0.0021,-0.0031 z" />
    </clipPath>
    <clipPath
       clipPathUnits="userSpaceOnUse"
       id="clipPath6714">
      <path
         id="path6716"
         style="fill:#ff0000;fill-opacity:1;fill-rule:nonzero;stroke:none;stroke-width:0.264583"
         d="m 51.405385,42.990285 v 17.70693 h 31.398083 v -17.70693 z m 12.784751,7.413501 c 0.0059,0.0024 0.0123,0.0078 0.01757,0.01654 0.007,0.01161 0.0043,0.0093 0.01447,0.01757 0.0021,0.0016 0.0034,0.0037 0.0057,0.0047 7.94e-4,2.64e-4 0.003,-2.65e-4 0.0026,-0.0011 0.0043,0.0011 0.0087,0.0024 0.01291,0.0036 0.0028,0.0026 0.0054,0.0052 0.0083,0.0078 0.0069,0.0064 0.01365,0.01368 0.0217,0.0186 5.29e-4,1.03e-4 7.94e-4,-4.8e-5 0.0011,0 0,0 5.3e-4,5.29e-4 5.3e-4,5.29e-4 0.0048,0.0019 0.0097,0.0039 0.01447,0.0057 0.0021,0.0016 0.0038,0.0034 0.0062,0.0047 2.62e-4,9.8e-5 0.01162,0.003 0.01188,0.0031 0.0026,7.93e-4 0.0052,0.0013 0.0078,0.0021 0.0073,0.0026 0.0094,0.0051 0.01138,0.0078 2.64e-4,5.3e-4 0.0019,0.0011 0.0021,0.0016 0.02048,0.0064 0.01294,0.004 0.02842,0.0155 0.0088,0.0024 0.01648,0.007 0.02429,0.01188 0.0042,0.0031 0.0065,0.0052 0.0098,0.0083 0.0027,7.94e-4 0.0033,-0.0016 0.01035,0.0016 0.0024,0.0011 0.0037,0.004 0.0057,0.0057 l 5.29e-4,-5.29e-4 c 0.0027,7.94e-4 0.0039,0.0039 0.0057,0.0062 0.0049,-5.29e-4 0.01177,-0.0016 0.0155,-5.29e-4 0.0046,0.0013 0.0089,0.003 0.01344,0.0047 0.01966,0.01839 0.0027,0.0026 0.0026,0.0026 -0.0027,-0.0013 -0.01148,-0.0035 -0.0088,-0.0021 0.0046,0.0024 0.0098,0.003 0.01447,0.0052 0.0016,7.93e-4 0.0028,0.0024 0.0041,0.0036 0.02806,0.02439 -0.04421,0.01508 -0.03101,0.02687 0.0013,8.5e-5 0.0029,1.96e-4 0.0041,5.3e-4 0.0011,2.64e-4 -0.0021,9.7e-5 -0.0036,0 0.0013,0.0011 -5.29e-4,0.0013 0.0021,0.0026 0,0 -5.29e-4,0 -5.29e-4,0 -0.0016,-7.93e-4 -0.01085,-0.0084 -0.0041,-0.0036 0,0 -5.29e-4,0 -5.29e-4,0 -5.29e-4,1.61e-4 -0.0011,2.64e-4 -0.0016,5.29e-4 -0.004,7.94e-4 -0.007,0.0019 -0.01138,0.0016 -0.0021,-1.98e-4 -0.01548,-0.0026 -0.01757,-0.0062 -7.93e-4,-0.0013 -0.0011,-0.0031 -0.0016,-0.0047 0,0 -5.29e-4,-5.29e-4 -5.29e-4,-5.29e-4 -2.02e-4,5.29e-4 -0.0031,-0.0021 -0.0047,-0.0031 -0.0019,-0.0013 -0.0039,-0.0026 -0.0057,-0.0041 -0.0077,-0.0019 -0.01318,-0.0054 -0.01963,-0.0098 -0.0089,-0.0065 -0.01982,-0.0079 -0.02842,-0.01497 -0.0042,-0.0038 -0.0076,-0.0057 -0.0078,-0.0067 -0.0011,7.7e-5 -0.0011,2.36e-4 -0.0078,5.29e-4 -0.0075,-0.004 -0.01262,-0.0074 -0.01654,-0.01188 -0.0065,-0.0021 -0.01278,-0.0047 -0.01913,-0.0072 0.03565,0.03804 0.0584,0.09206 0.05943,0.158129 0.280091,0.0433 0.371208,0.411035 -0.02429,0.670242 -0.182102,0.119335 -0.359207,0.246354 -0.534337,0.376206 0.03363,0.136448 0.071,0.272029 0.0987,0.409795 2.64e-4,0.0019 -0.01974,0.0053 -0.04651,0.02119 -0.05917,0.03502 -0.113143,0.07927 -0.173116,0.11317 -0.190215,0.122986 -0.379445,0.246316 -0.556554,0.387572 -0.04565,-0.0577 -0.0037,-0.01995 -0.05891,0.07493 -0.07301,0.125357 -0.175115,0.200168 -0.297657,0.273367 -0.01042,0.0062 0.01765,-0.01691 0.02635,-0.02532 -0.0016,-0.0065 -7.94e-4,-0.02503 -0.0047,-0.01963 -0.18393,0.25397 0.170067,-0.154067 -0.106452,0.198437 -0.06322,0.08059 -0.153726,0.128754 -0.252182,0.134874 -0.0083,0.0069 -0.01585,0.0145 -0.02376,0.0217 -0.117679,0.10944 -0.237421,0.217395 -0.34675,0.335378 -0.04383,0.0473 -0.08412,0.0978 -0.125055,0.147796 0.08182,-0.04239 0.163499,-0.08556 0.246496,-0.125574 0.02437,-0.01175 0.0603,-0.04855 0.07648,-0.02687 0.0013,0.0016 0.0019,0.0035 0.0031,0.0052 0.0123,-0.0057 0.01445,-0.0083 0.02997,-0.01497 0.0089,0.03673 0.01992,0.0731 0.03049,0.109553 1.88e-4,2.65e-4 2.44e-4,7.94e-4 5.3e-4,0.0011 0.05502,0.0991 0.0965,0.206563 0.147793,0.307993 v 5.29e-4 c 0.0019,0.0039 0.0037,0.008 0.0057,0.01188 -0.02678,0.01122 -0.0306,0.01318 -0.02326,0.0062 -0.08039,0.07479 -0.188209,0.118195 -0.271817,0.186553 -0.265121,0.165089 -0.391901,0.247547 -0.685747,0.411861 -0.01998,0.01117 -0.223986,0.117827 -0.375687,0.197921 -5.3e-4,0.01778 -0.0013,0.03515 -0.0062,0.05219 -0.01685,0.05917 -0.0938,0.09935 -0.144176,0.129709 -0.115258,0.06244 -0.16709,0.206259 -0.287838,0.26665 -0.123227,0.09468 -0.246306,0.189455 -0.372586,0.280085 -0.09502,0.06819 -0.158449,0.104506 -0.251148,0.182936 -0.03544,0.02998 -0.06698,0.06479 -0.100253,0.09715 -0.05694,0.04426 -0.110713,0.09252 -0.170532,0.132808 -0.02956,0.01992 -0.06351,0.03268 -0.09612,0.04702 -0.08156,0.03593 -0.158493,0.06206 -0.235127,0.08733 -0.224843,0.107656 -0.436169,0.240268 -0.681096,0.296622 -0.04828,0.01111 -0.07256,0.01143 -0.08992,0.01085 -0.01304,0.01111 -0.02545,0.02056 -0.04082,0.03721 -0.0031,0.0016 -0.0062,0.0029 -0.0093,0.0047 -0.0019,0.0049 -0.0026,0.0056 -0.0052,0.01188 -0.159647,0.160946 -0.304268,0.157575 -0.505912,0.176215 -0.07869,0.0073 0.06957,-0.0091 -0.07751,0.0217 -0.01691,0.0123 -0.32403,-0.01045 -0.139012,0.0036 -0.144716,0.08078 -0.307528,0.126318 -0.472321,0.139528 -0.130339,0.04176 -0.273254,0.08245 -0.330729,0.09508 -0.0019,5.29e-4 -0.0047,0.0016 -0.0067,0.0021 -0.156626,0.18609 -0.132226,0.163775 -0.50953,0.363802 -0.53128,0.281655 -0.652052,0.341562 -1.185457,0.492993 -0.668645,0.18982 -0.470078,0.167831 -0.906923,0.176734 -0.09948,0.0026 -0.199229,0.005 -0.298688,0.0083 -0.05223,0.0019 -0.107191,0.02437 -0.156581,0.0072 -0.2946,-0.101838 -0.377685,-0.125696 -0.372586,-0.303339 -0.02837,-0.0013 -0.05091,-0.0087 -0.07545,-0.01394 -0.01267,0.0073 -0.02516,0.01482 -0.03772,0.02222 -0.26684,0.149828 -0.123806,0.06093 -0.392739,0.211876 -0.07177,-0.0073 -0.138452,-0.01252 -0.205674,-0.01447 -0.0406,0.01971 -0.04891,0.02791 -0.131257,0.06253 -0.04705,0.01976 -0.101913,0.0093 -0.151414,0.0217 -0.01172,0.0029 0.02334,0.0046 0.03514,0.0072 -0.07614,0.04144 -0.161335,0.04768 -0.245464,0.05478 -0.207383,0.01744 -0.211791,-0.05734 -0.150895,-0.159679 -0.0031,-0.0013 -0.0033,2.65e-4 -0.0072,-0.0016 -0.0039,-0.0019 -0.0031,-0.0085 -0.0036,-0.01291 -0.0019,-0.01585 0.0036,-0.03181 0,-0.04754 8e-6,-0.0043 -10e-6,-0.0086 0,-0.01291 2.65e-4,0.0035 0.0021,0.0075 -5.29e-4,0.0093 -5.29e-4,2.65e-4 -0.0011,1.83e-4 -0.0016,5.3e-4 -0.0026,0.0019 -0.0063,7.93e-4 -0.0093,0.0021 5.29e-4,0.02503 0.0013,0.05045 0,0.07545 -5.29e-4,0.0084 0.0049,0.02 -0.0021,0.02479 -0.01183,0.0081 -0.02844,0.0091 -0.04237,0.0057 -0.0054,-0.0013 -0.0019,-0.01103 -0.0026,-0.01654 2.65e-4,-0.02286 7.94e-4,-0.04073 0.0011,-0.05788 -0.0071,0.0039 -0.01413,0.0084 -0.0217,0.01138 -0.0067,0.0026 -0.01397,0.0019 -0.02119,0.0026 h -5.29e-4 c -7.94e-4,5.29e-4 -0.0019,0.0011 -0.0026,0.0016 -1.51e-4,-8e-6 2.51e-4,0.0024 0,0.0021 l -5.29e-4,-5.29e-4 c -0.0094,0.0067 -0.01987,0.01185 -0.02998,0.01757 -0.0024,-0.0044 -0.0049,-0.009 -0.0072,-0.01344 -0.01453,0.0026 -0.02923,0.0029 -0.04341,0 -0.0026,0.0019 -0.0052,0.0034 -0.0078,0.0052 -2.59e-4,5.29e-4 -2.04e-4,0.0011 -5.29e-4,0.0016 -0.0047,0.0075 -0.01008,0.01453 -0.01447,0.02222 -0.0016,0.0027 -0.0013,0.0074 -0.0041,0.0088 -0.0091,0.0043 -0.01976,0.01011 -0.02946,0.0072 -0.0019,-5.29e-4 -0.0013,-0.0027 -0.0026,-0.0036 -0.0016,0.0013 -0.0035,0.0024 -0.0052,0.0036 -0.0046,0.0047 -0.0081,0.01056 -0.01291,0.01498 -0.0082,0.0076 -0.01516,0.02074 -0.02635,0.02066 -0.0011,-8e-6 -0.0021,-0.0016 -0.0031,-0.0016 -0.0034,0.0055 -0.0069,0.01363 -0.01035,0.01035 -0.0062,-0.006 -0.0081,-0.0099 -0.01085,-0.01447 -0.0076,-0.0035 -0.01386,-0.0086 -0.01757,-0.01551 -0.0044,-0.0083 0.01336,-0.01315 0.02016,-0.01963 0.0038,-0.003 0.0076,-0.0058 0.01138,-0.0088 -0.0021,-0.0051 -0.0034,-0.01214 -0.0047,-0.0217 -5.29e-4,-0.0032 -0.0013,-0.0035 -0.0016,-0.0072 -2.46e-4,-0.0031 0.01487,-0.02196 0.01757,-0.02687 0.0031,-0.0055 0.0051,-0.01135 0.0078,-0.01707 0.0094,-0.02228 0.0064,-0.01349 0.0155,-0.04496 0.0024,-0.008 0.0053,-0.01556 0.0067,-0.02376 0,-0.0077 3e-6,-0.01381 0,-0.02066 -5.29e-4,-0.0079 -0.0013,-0.01588 -0.0016,-0.02376 -5.29e-4,-0.0118 0.0011,-0.02339 0,-0.03514 -0.0021,-0.02326 -0.0048,-0.04695 -0.0098,-0.06976 -0.0051,-0.02318 -0.01368,-0.04503 -0.02066,-0.0677 -0.0245,-0.07908 -0.01482,-0.05385 -0.03256,-0.09818 l -5.29e-4,5.29e-4 c -0.01521,-0.03806 0.02355,-0.05309 0.03876,-0.01497 0.01416,0.0354 0.01609,0.04497 0.02635,0.07906 -3e-6,-0.0062 -5e-6,-0.01482 0,-0.0186 0,-2.64e-4 -1.3e-5,-0.0016 0,-0.0021 7.9e-5,-0.0011 -8.2e-5,-0.0021 0,-0.0031 1.22e-4,-0.0011 -5.29e-4,-0.0033 5.29e-4,-0.0031 h 5.29e-4 c 1.85e-4,-0.0013 1.91e-4,-0.0031 5.29e-4,-0.0031 0.01953,1.42e-4 0.02862,-7.94e-4 0.03411,-5.3e-4 7.94e-4,-0.02273 0.0013,-0.0455 0.0016,-0.06821 -2.64e-4,-0.0038 -0.0013,-0.0081 -0.0016,-0.01188 -5e-5,-0.0069 -1.4e-4,-0.01326 0,-0.02016 9.8e-5,-0.0035 7.94e-4,-0.01376 0.0016,-0.0181 2.62e-4,-0.0016 -2.01e-4,-0.0048 0.0016,-0.0047 0.03215,0.0055 0.03704,0.0054 0.03824,0.01188 7.94e-4,-2.4e-5 5.29e-4,4.2e-5 0.0016,0 -1.72e-4,0.0013 -2.33e-4,0.0021 -5.3e-4,0.0031 -2.1e-5,0.0016 0.0016,0.0011 0.0016,0.0036 6.3e-5,0.0097 -0.0011,0.01929 -0.0011,0.02894 0.0019,0.02302 0.0056,0.04574 0.0083,0.06873 7.93e-4,4.5e-5 7.93e-4,-5.29e-4 0.0016,-5.29e-4 0.0064,5.29e-4 0.01042,0.0074 0.01497,0.01188 0.0016,0.0016 0.0026,0.0037 0.0031,0.0057 0.0036,0.01307 0.0029,0.01378 0.0026,0.02479 7.9e-5,0.0013 5.29e-4,0.0097 0.0011,0.01757 0.0013,-0.01625 0.0049,-0.03231 0.0052,-0.04858 -5.3e-4,-0.0016 -0.0011,-0.0035 -0.0011,-0.0052 1.78e-4,-0.003 0.0011,-0.0036 0.0011,-0.0062 -7.94e-4,-0.0026 -0.0026,-0.0061 -5.3e-4,-0.0062 0.0013,-4.5e-5 1.09e-4,5.29e-4 0.0016,5.29e-4 7.94e-4,-0.01103 0.009,-0.01389 0.02687,-0.0078 7.93e-4,-0.0033 0.0013,-0.0055 0.0021,-0.0093 0.0026,-0.014 0.0065,-0.02522 0.01498,-0.03617 0.0084,-0.01087 0.01553,-0.0109 0.03462,0 0.0065,-2.64e-4 0.01487,0.006 0.02997,0.01963 5.29e-4,5.29e-4 1.6e-5,0.0019 0,0.0026 0.0013,-0.02611 0.0021,-0.03073 0.0083,-0.05478 0.01455,0.0035 0.03137,0.0013 0.04341,0.01035 0.0065,0.0048 0.0024,0.01569 0.0031,0.02379 1.27e-4,0.0016 -1.19e-4,0.0029 0,0.0047 0.0029,0.0013 0.0028,5.29e-4 0.0062,0.0021 0.0029,0.0013 2.64e-4,0.0056 -0.0011,0.0093 0.0033,-5.3e-4 0.006,-7.94e-4 0.0052,-0.0021 0.0011,7.94e-4 0.0019,0.0019 0.0021,0.0031 0.0038,0.02304 0.0026,0.02617 0.0026,0.03152 0.0028,0.0019 0.0062,0.0036 0.0088,0.0057 0.0011,7.93e-4 -5.29e-4,0.0021 -5.29e-4,0.0036 -1.43e-4,0.004 -1.8e-4,0.0079 0,0.01188 2.14e-4,0.0047 5.29e-4,0.0093 0.0011,0.01394 0.0011,-0.0019 0.0024,-0.0034 0.0036,-0.0052 0.01556,-0.02127 0.0185,-0.03871 0.05426,-0.0155 0.0052,0.0034 2.65e-4,0.0122 -0.0016,0.0181 -0.0016,0.0056 -0.0058,0.0105 -0.0088,0.0155 -0.0047,0.0079 -0.0096,0.0159 -0.01447,0.02376 -5.3e-4,0.03206 -2.25e-4,0.06406 -5.3e-4,0.09612 0.01037,-0.03535 0.01823,-0.07165 0.03049,-0.106452 0.01408,-0.03998 0.01725,-0.05032 0.04031,-0.0863 0.0046,-0.0072 0.01061,-0.01347 0.01601,-0.02016 0.0091,-0.01114 0.0185,-0.0223 0.02739,-0.03359 0.0016,-0.0021 0.0029,-0.0053 0.0052,-0.0062 0.0082,-0.0032 0.01765,-0.0088 0.02585,-0.0057 0.0013,5.29e-4 0.0021,0.0027 0.0031,0.0036 0.0019,-0.0016 0.0034,-0.0037 0.0052,-0.0052 -0.02162,0.0013 -0.04261,0.0021 -0.07183,0.0072 -0.06835,0.01199 -0.06963,0.02466 0.03772,-0.02066 0.02913,-0.0066 0.05822,-0.01294 0.08733,-0.01963 0.06305,-0.03691 0.128169,-0.0701 0.193786,-0.10232 0.0066,-0.0032 0.01492,-0.0013 0.02222,-0.0021 0.07279,-0.0055 0.145997,-0.0053 0.218591,0.0031 0.0095,-0.0063 0.01834,-0.01347 0.02791,-0.01963 0.0354,-0.02283 0.07578,-0.03644 0.112654,-0.05684 0.01918,-0.01061 0.03803,-0.02236 0.05685,-0.03359 0.0337,-0.01984 0.133109,-0.08068 0.168981,-0.09354 0.150249,-0.05379 0.195572,-0.03079 0.342614,-0.09457 0.06427,-0.01 0.293577,-0.05268 0.407728,-0.02016 0.0091,-0.0031 0.01828,-0.0062 0.02739,-0.0093 -0.0013,0.0033 -0.0053,0.0092 -0.0083,0.01394 0.0041,0.0016 0.01087,0.0011 0.01447,0.0031 0.0035,0.0019 0.0019,0.0021 0.0016,0.0031 0.01474,-0.01852 0.02811,-0.03877 0.04806,-0.05064 0.04091,-0.02437 0.08563,-0.04125 0.130225,-0.0584 0.0011,-5.29e-4 0.0021,-0.0011 0.0031,-0.0016 -7.94e-4,1.72e-4 -0.0013,2.4e-4 -0.0021,5.29e-4 -5.29e-4,-0.0013 0.0079,-0.01087 0.01394,-0.01344 0.0048,-0.0019 0.0078,-0.0019 0.01498,-0.0041 -0.009,0.0057 -0.01762,0.01177 -0.02687,0.01704 0.02474,-0.0096 0.04978,-0.01863 0.07338,-0.03049 0.01384,-0.0069 -0.02058,0.0042 -0.04496,0.01241 0.01945,-0.01238 0.0389,-0.02434 0.05839,-0.03669 0.09949,-0.01355 0.199302,-0.02658 0.298691,-0.04082 0.05022,-0.03901 0.10805,-0.08324 0.147277,-0.09974 0.184666,-0.07774 0.373753,-0.07191 0.566373,-0.03411 7.93e-4,2.38e-4 0.0013,2.22e-4 0.0021,5.29e-4 0.08202,-0.07408 -0.08185,-0.0044 0.463537,-0.09043 0.06332,-0.0284 -0.136678,-0.02225 -0.205155,-0.03359 0.04882,0.0079 0.0079,0.0031 0.116271,-0.03152 0.183316,-0.05854 0.370364,-0.127683 0.566375,-0.114723 0.06945,0.03871 0.0027,0.01212 0.131773,-0.02532 0.05905,-0.01712 0.11987,-0.02719 0.180351,-0.03824 0.01968,-0.0036 -0.18074,0.145182 0.04444,-0.01085 0.06304,-0.02315 0.125288,-0.04845 0.189137,-0.06925 0.09127,-0.0297 0.242171,0.0016 0.330211,0.0083 0.01585,0.0034 0.0317,0.0069 0.04754,0.01035 -0.0088,0.0016 -0.03505,0.0024 -0.02635,0.0047 0.005,0.0013 0.01297,-7.93e-4 0.0186,0 0.06543,-0.03241 0.132498,-0.06209 0.196887,-0.09612 0.115494,-0.06102 0.220152,-0.140489 0.330214,-0.210839 0.06101,-0.039 0.12197,-0.07772 0.182935,-0.116789 -0.01669,-0.02803 -0.03265,-0.05681 -0.05116,-0.0832 0.09322,-0.03941 0.14205,-0.06441 0.175184,-0.0832 -0.0047,-0.0097 -0.01154,-0.01828 -0.0155,-0.02842 -0.014,-0.03578 0.07613,-0.01257 0.113689,-0.02066 0.03961,-0.0085 0.07872,-0.01828 0.11834,-0.02687 0.02257,-0.01892 0.05051,-0.03933 0.08371,-0.05891 0.0026,-0.01013 0.0041,-0.02061 0.0088,-0.02997 0.07739,-0.153988 0.117621,-0.186928 0.244428,-0.2589 0.244345,-0.132662 0.441626,-0.330237 0.668178,-0.488342 0.169064,-0.09402 0.200131,-0.113083 0.407726,-0.216006 0.297299,-0.147407 0.331481,-0.134802 0.652674,-0.363286 0.0074,-0.0053 0.01389,-0.01164 0.02119,-0.01707 0.0049,-0.0072 0.01193,-0.0127 0.01654,-0.02016 0.05544,-0.07478 0.04629,-0.06182 0.05013,-0.06718 0.02646,-0.223999 0.048,-0.226261 0.224793,-0.289388 0.04631,-0.0092 0.09991,-0.02098 0.130225,-0.01291 0.0745,-0.15489 0.07865,-0.155591 0.174149,-0.25735 0.171421,-0.177003 -0.08998,0.101373 0.125574,-0.168465 0.03975,-0.04976 0.08456,-0.09514 0.130741,-0.13901 0.01704,-0.01619 0.03966,-0.05451 0.05839,-0.04031 0.02159,0.01635 -0.01918,0.102973 -0.0031,0.08113 0.03333,-0.04543 0.04044,-0.104953 0.06046,-0.157613 0.08644,-0.0627 0.176798,-0.120462 0.259416,-0.188103 0.0069,-0.0056 -0.01587,0.0072 -0.02479,0.01085 -0.0072,0.0065 -0.01334,0.01439 -0.02119,0.02016 -0.006,0.0044 -0.02829,0.0042 -0.02222,0 0.0131,-0.0091 0.02726,-0.01352 0.04341,-0.02016 0.01995,-0.01781 0.03992,-0.0359 0.05891,-0.05478 0.124124,-0.123325 0.09573,-0.09384 0.194305,-0.218591 0.124603,-0.161023 0.186645,-0.259355 0.366385,-0.375171 0.04282,-0.06695 0.09129,-0.128844 0.157096,-0.180351 0.05808,-0.03905 0.107582,-0.09204 0.160197,-0.139009 2.65e-4,-2.65e-4 7.94e-4,-7.94e-4 0.0011,-0.0011 0.0123,-0.01381 0.02619,-0.02676 0.03669,-0.04134 0.290206,-0.30802 0.638945,-0.552873 0.987536,-0.794784 0.0058,-0.01413 0.0071,-0.01955 0.01447,-0.03411 0.01334,-0.01799 0.02442,-0.03795 0.03979,-0.05426 0.05448,-0.05783 0.03922,-0.03095 0.08217,-0.06615 0.0021,-0.0019 0.0029,-0.0039 0.0052,-0.0062 0.01013,-0.03066 0.01992,-0.06093 0.03514,-0.09457 0.01244,-0.02752 0.04313,-0.04248 0.06253,-0.06563 0.0099,-0.0118 0.02572,-0.04229 0.03411,-0.05788 0.08194,-0.152731 0.19227,-0.213339 0.286287,-0.208772 h 5.3e-4 c 0.01635,7.94e-4 0.03098,0.0071 0.04599,0.01188 -0.01093,-0.0077 -0.02035,-0.0176 -0.02687,-0.02894 v -5.29e-4 c -0.01527,-0.02663 2.65e-4,-0.045 0.0181,-0.03773 z m 0.198438,0.172082 c -7.94e-4,-0.0021 -0.0019,-0.004 -0.0026,-0.0062 -7.94e-4,2.65e-4 -0.0013,0.0016 -0.0021,0.0016 0.0019,0.0013 0.0035,0.0029 0.0047,0.0047 z m -0.113689,-0.10387 c -2.65e-4,-1.13e-4 -7.94e-4,1.17e-4 -0.0011,0 2.64e-4,1.91e-4 7.93e-4,2.65e-4 0.0011,5.3e-4 0,0 0,-5.3e-4 0,-5.3e-4 z m 0.05633,0.03101 c 7.94e-4,0.0024 0.0011,0.0042 0.0026,0.0078 7.94e-4,0.0019 -5.29e-4,-0.0042 -0.0011,-0.0062 -1.51e-4,-7.94e-4 -0.0011,-0.0011 -0.0016,-0.0016 z m -0.06046,0.0093 c 1.78e-4,1.7e-4 2.65e-4,2.65e-4 5.3e-4,5.29e-4 2.64e-4,-3.1e-5 0.0013,-2.56e-4 0.0011,-5.29e-4 -5.29e-4,-2.64e-4 -0.0011,4.3e-5 -0.0016,0 z m 0.0217,0.0016 c -5.29e-4,-0.0032 0.0016,0.0063 0.0036,0.0088 2.65e-4,5.29e-4 5.29e-4,8.2e-5 0.0011,5.29e-4 -0.0019,-0.0027 -0.0041,-0.0045 -0.0047,-0.0093 z m 0.08733,0.01601 c 0,0 -5.29e-4,5.29e-4 -5.29e-4,5.29e-4 5.29e-4,-2.04e-4 0.0016,1.56e-4 0.0021,0 -5.29e-4,-9.8e-5 -0.0011,-5.29e-4 -0.0016,-5.29e-4 z m 0.0011,0.02635 c -0.0024,-0.003 1.96e-4,0.0056 0.0016,0.01138 0.0011,2.17e-4 0.0026,-4.8e-5 0.0031,0 -0.0013,-0.004 -0.0021,-0.0081 -0.0047,-0.01138 z m 0.0186,0.0057 c -0.0036,0.0013 -0.0066,0.0039 -0.0098,0.0062 5.3e-4,-2.33e-4 0.0019,5.29e-4 0.0031,0 0.0021,-0.0019 0.0094,-0.0072 0.0067,-0.0062 z M 63.72506,50.90922 c -0.01175,0.01741 -0.0072,0.0095 -0.0341,0.05116 -5.29e-4,0.01521 2.59e-4,0.0052 0,0.01601 0.0067,-0.0047 0.01344,-0.0093 0.02016,-0.01394 0.005,-0.02019 0.0059,-0.02701 0.01394,-0.05323 z m -3.233394,3.116088 c -0.0065,0.01246 -0.0072,0.02162 -0.01085,0.03256 0.0028,-0.0021 0.0055,-0.0045 0.0083,-0.0067 7.94e-4,-0.0083 0.0019,-0.0186 0.0026,-0.02585 z m -2.072741,1.468643 c -2.38e-4,5.3e-4 -7.93e-4,5.3e-4 -0.0011,0.0011 -0.0033,0.0062 -0.0013,0.0092 -0.0036,0.02066 0.0011,-0.0074 0.0034,-0.01434 0.0047,-0.0217 z m -3.02514,1.127065 c -0.0073,0.0019 -0.01439,0.0038 -0.02119,0.0067 -0.0031,0.0013 -0.0029,0.01217 0,0.01035 0.01376,-0.0092 0.0109,-0.0096 0.02119,-0.01704 z m -0.659907,0.09663 c 0.0021,0.0011 0.0032,0.0016 0.0067,0.0021 0.0013,-1.8e-4 0.0024,-2.22e-4 0.0036,-5.29e-4 0.0034,-5.29e-4 -0.01341,-0.003 -0.01035,-0.0016 z m -0.671277,0.209807 c -0.0036,2.65e-4 0.0062,0.0034 0.0093,0.0052 0.0041,-0.0013 0.0083,-0.0027 0.01241,-0.0041 -0.0073,-2.65e-4 -0.01677,-0.0016 -0.0217,-0.0011 z m 0.06718,0.0031 c -0.0097,0.01638 -0.01921,0.03249 -0.0088,0.02687 0.01079,-0.0058 0.01844,-0.01633 0.02635,-0.02582 -0.0042,2.44e-4 -0.01027,-5.29e-4 -0.01757,-0.0011 z m -1.597835,0.4377 c -0.0062,0.0065 -0.01384,0.01109 -0.02016,0.01757 0.0013,0.003 0.0034,0.0052 0.0052,0.0078 0.0021,0.02582 5.3e-4,0.05168 0.0021,0.07751 0.0011,0.01855 0.003,0.03678 0.0047,0.05529 0.0013,0.01262 0.0029,0.02508 0.0036,0.03772 2.64e-4,0.0059 2.24e-4,0.0096 5.29e-4,0.01498 0.0084,-0.01024 0.01307,-0.0186 0.02066,-0.02842 2.54e-4,-0.0019 7.93e-4,-0.0034 0.0011,-0.0052 0.0019,-0.02117 5.29e-4,-0.02564 -0.0026,-0.04289 -1.93e-4,-0.0043 -0.0021,-0.02732 -5.29e-4,-0.03462 0.0038,-0.01746 0.01302,-0.04531 0.03876,-0.04031 0.0081,0.0016 0.01167,0.01167 0.01757,0.01757 2.65e-4,0.0045 7.94e-4,0.009 0.0011,0.01344 0.0026,-0.0013 0.0056,-0.0024 0.0083,-0.0036 0.02291,-0.05343 0.0093,-0.08855 -0.07958,-0.08682 z m -0.05426,0.0739 c -2.65e-4,5.29e-4 -5.3e-4,0.0011 -0.0011,0.0016 -0.004,0.0048 -0.0085,0.0093 -0.01188,0.01447 -0.02162,0.033 -0.02379,0.04155 -0.03721,0.07958 -0.02408,0.06827 -0.0454,0.137496 -0.06098,0.208256 -4.2e-5,0.01116 -5.29e-4,0.01942 -5.29e-4,0.02687 0.03964,-0.04853 0.08013,-0.09697 0.121441,-0.145208 -8.7e-5,-0.01889 2.65e-4,-0.03747 -0.0011,-0.05943 -7.94e-4,-0.01299 -0.003,-0.02577 -0.0041,-0.03876 -0.0026,-0.02919 -0.0034,-0.05814 -0.0047,-0.08733 z m -0.685748,0.106455 c 0.0066,0.0045 0.0076,0.0056 0.0072,0.01085 -8e-6,2.65e-4 -5.3e-4,0.0024 -5.3e-4,0.0026 1.49e-4,0.0019 0.0013,0.0032 5.3e-4,0.0052 -2.09e-4,5.29e-4 -7.94e-4,0.0011 -0.0011,0.0016 -6.1e-5,2.65e-4 4.5e-5,7.94e-4 0,0.0011 l -5.29e-4,5.3e-4 c -2.17e-4,0.0019 -1.98e-4,0.0035 -0.0011,0.0052 -2.01e-4,5.29e-4 -5.29e-4,0.0016 -5.29e-4,0.0021 -5.3e-4,0.0036 0.003,0.0098 -0.0016,0.01241 -2.62e-4,2.64e-4 -0.0013,0.0013 -0.0016,0.0016 -0.0016,0.0042 -5.3e-4,0.0037 -0.0011,0.0093 -7.93e-4,0.0096 -2.64e-4,0.008 -0.0031,0.01498 -0.0013,0.0024 -0.0026,0.0048 -0.0041,0.0072 -7.94e-4,0.0013 -0.0019,0.0021 -0.0026,0.0031 -0.0052,0.007 -0.0067,0.0092 -0.01085,0.01704 -0.0013,0.0029 -0.0027,0.0058 -0.0041,0.0088 -5.6e-5,5.29e-4 8.5e-5,0.0011 0,0.0016 -1.51e-4,0.0011 -7.94e-4,0.0021 -0.0011,0.0031 -1.57e-4,0.0013 1.3e-5,0.0045 0,0.0057 2.64e-4,0.0037 6.6e-5,0.0076 0,0.01138 -4.3e-5,0.0013 0,0.0024 0,0.0036 1.42e-4,-5.29e-4 7.1e-5,-0.0016 5.29e-4,-0.0016 7.93e-4,1.01e-4 0.0011,0.0016 0.0016,0.0021 v 5.29e-4 c -0.0019,-5.29e-4 -0.0038,-0.0019 -0.0057,-0.0016 -0.0013,2.03e-4 -0.0021,0.0019 -0.0031,0.0026 -0.01199,0.0081 0.0231,-0.0011 0.01188,0.0083 -0.0013,0.0011 -0.0024,0.0028 -0.0041,0.0031 -0.0064,0.0013 -0.0079,-0.0044 -0.01034,-0.0088 -0.0041,0.0073 -0.0049,0.009 -0.0093,0.01757 h -5.29e-4 c -0.0065,0.01302 -0.01942,0.0062 -0.01291,-0.0067 0.0046,-0.0092 0.0049,-0.01042 0.0098,-0.01913 7.94e-4,-0.0013 0.0019,-0.0027 0.0026,-0.0041 0.0011,-0.0021 0.0013,-0.0041 0.0021,-0.0062 v -5.29e-4 c 5.29e-4,-0.0027 0.0016,-0.0052 0.0021,-0.0078 5.29e-4,-0.0016 7.94e-4,-0.0035 0.0016,-0.0052 2.64e-4,-7.94e-4 7.93e-4,-0.0019 0.0011,-0.0026 -4.5e-5,-5.29e-4 2.4e-5,-0.0011 0,-0.0016 1.51e-4,-0.0019 2.51e-4,-0.0038 5.29e-4,-0.0057 7.94e-4,-0.0026 0.0011,-0.0039 0.0021,-0.0062 0.0016,-0.0036 1.98e-4,-0.0081 0.0011,-0.01188 1.1e-5,-0.0042 -5.29e-4,-0.0081 -5.29e-4,-0.01241 3e-6,-0.006 1.88e-4,-0.01206 0,-0.0181 -5.29e-4,-0.0062 -5.29e-4,-0.0086 0.0026,-0.01447 5.29e-4,-0.0011 -5.29e-4,0.0024 -0.0016,0.0031 -7.93e-4,5.3e-4 2.54e-4,-0.0016 5.3e-4,-0.0026 -1.27e-4,-0.0045 -5.6e-5,-0.01119 0,-0.01551 2.1e-5,-0.0013 -5.3e-4,-0.0026 0,-0.0036 0.0088,-0.0146 0.0086,-0.01265 0.0072,-0.0072 -2.64e-4,0.0011 7.94e-4,0.0013 5.29e-4,0.0026 -0.0011,0.0049 -0.0032,0.01087 0.0011,0.0098 -9e-5,-0.0048 -5.3e-4,-0.0097 -5.3e-4,-0.01447 h 5.3e-4 c 0.0011,4e-5 0.0021,5.29e-4 0.0031,5.29e-4 0.0049,7.5e-5 0.0097,5.6e-5 0.01447,-5.29e-4 0.0011,-1e-4 0.0069,-0.0011 0.0078,-5.29e-4 z m -0.0072,0.01498 c -0.0042,2.64e-4 -0.0082,5.29e-4 -0.01241,5.29e-4 5.3e-5,0.005 2.54e-4,0.0076 5.3e-4,0.01291 -0.0013,0.01064 2.46e-4,3.7e-5 -0.0036,0.0098 5.29e-4,-5.29e-4 0.0011,-0.0011 0.0016,-0.0016 1.51e-4,0.0016 5.29e-4,0.0035 5.29e-4,0.0052 2.44e-4,0.0063 3e-6,0.0123 0,0.0186 1.1e-5,0.0021 -5e-6,0.0045 0,0.0067 0.0026,-0.0032 0.0016,-2.01e-4 0.0052,-0.0078 5.29e-4,-0.0013 7.94e-4,-0.0024 0.0011,-0.0036 0.0016,-0.0084 -2.12e-4,-0.0027 5.29e-4,-0.01034 5.29e-4,-0.0045 0.0019,-0.0079 0.0041,-0.01138 -5.29e-4,-0.0033 -5.29e-4,-0.0063 0,-0.0098 0.0011,-0.0034 0.0016,-0.0063 0.0031,-0.0093 z m -0.03462,0.101285 c 2.9e-5,2.65e-4 -1.38e-4,7.94e-4 0,0.0011 5.29e-4,7.94e-4 0.0011,0.0011 0.0021,0.0021 -7.94e-4,-0.0011 -0.0013,-0.0021 -0.0021,-0.0031 z" />
    </clipPath>
    <clipPath
       clipPathUnits="userSpaceOnUse"
       id="clipPath6730">
      <path
         id="path6732"
         style="fill:#ff0000;fill-opacity:1;fill-rule:nonzero;stroke:none;stroke-width:0.264583"
         d="M 36.600604,28.514683 V 57.82659 h 15.399577 c 0.0086,-0.02032 0.0061,-0.0132 0.01498,-0.04393 0.0024,-0.008 0.0053,-0.01558 0.0067,-0.02376 0,-0.0077 3e-6,-0.01378 0,-0.02066 -5.29e-4,-0.0079 -0.0013,-0.01585 -0.0016,-0.02376 -5.29e-4,-0.0118 0.0011,-0.02339 0,-0.03514 -0.0021,-0.02326 -0.0048,-0.04695 -0.0098,-0.06976 -0.0051,-0.02318 -0.01368,-0.04504 -0.02066,-0.0677 -0.0245,-0.07908 -0.01482,-0.05387 -0.03256,-0.09819 l -5.29e-4,5.29e-4 c -0.01521,-0.03806 0.02355,-0.05311 0.03876,-0.01497 0.01416,0.0354 0.01609,0.04496 0.02635,0.07906 -2e-6,-0.0062 -5e-6,-0.01482 0,-0.0186 0,-2.64e-4 -1.3e-5,-0.0011 0,-0.0016 8e-5,-0.0011 -8.2e-5,-0.0021 0,-0.0031 1.22e-4,-0.0011 -5.29e-4,-0.0033 5.29e-4,-0.0031 h 5.3e-4 c 1.85e-4,-0.0013 1.9e-4,-0.0036 5.29e-4,-0.0036 0.01953,1.4e-4 0.02862,-7.94e-4 0.03411,-5.29e-4 7.94e-4,-0.02273 0.0013,-0.04549 0.0016,-0.06821 -2.65e-4,-0.0038 -0.0013,-0.0076 -0.0016,-0.01138 -5e-5,-0.0069 -1.4e-4,-0.01326 0,-0.02016 9.8e-5,-0.0035 7.94e-4,-0.01376 0.0016,-0.0181 2.62e-4,-0.0016 -2.01e-4,-0.0048 0.0016,-0.0047 0.03215,0.0055 0.03704,0.0054 0.03824,0.01188 7.94e-4,-2.7e-5 5.3e-4,4.2e-5 0.0016,0 -1.69e-4,0.0013 -2.33e-4,0.0026 -5.29e-4,0.0036 -2.4e-5,0.0016 0.0011,0.0011 0.0011,0.0036 6.4e-5,0.0097 -5.29e-4,0.01929 -5.29e-4,0.02894 0.0019,0.02302 0.0051,0.04574 0.0078,0.06873 7.94e-4,4.5e-5 0.0013,-5.3e-4 0.0021,-5.3e-4 0.0064,5.3e-4 0.0099,0.0074 0.01447,0.01188 0.0016,0.0016 0.0026,0.0037 0.0031,0.0057 0.0036,0.01307 0.0034,0.01378 0.0031,0.02479 7.9e-5,0.0013 0.0016,0.0097 0.0021,0.01757 0.0013,-0.01625 0.0049,-0.03231 0.0052,-0.04858 -5.29e-4,-0.0016 -0.0011,-0.0035 -0.0011,-0.0052 1.77e-4,-0.003 0.0011,-0.0036 0.0011,-0.0062 -7.94e-4,-0.0026 -0.0026,-0.0061 -5.29e-4,-0.0062 0.0013,-4.5e-5 1.14e-4,5.29e-4 0.0016,5.29e-4 7.94e-4,-0.01103 0.009,-0.01389 0.02687,-0.0078 7.94e-4,-0.0033 0.0013,-0.0055 0.0021,-0.0093 0.0026,-0.014 0.0065,-0.02521 0.01497,-0.03617 0.0084,-0.01087 0.01553,-0.0109 0.03462,0 0.0065,-2.64e-4 0.01487,0.006 0.02997,0.01963 5.29e-4,5.29e-4 1.3e-5,0.0019 0,0.0026 0.0013,-0.02611 0.0021,-0.03073 0.0083,-0.05478 0.01455,0.0035 0.03137,0.0013 0.04341,0.01035 0.0065,0.0048 0.0024,0.01569 0.0031,0.02379 1.27e-4,0.0016 -1.19e-4,0.0029 0,0.0047 0.0029,0.0013 0.0028,-1.05e-4 0.0062,0.0016 0.0029,0.0013 2.65e-4,0.0056 -0.0011,0.0093 0.0033,-5.29e-4 0.006,-7.94e-4 0.0052,-0.0021 0.0011,7.93e-4 0.0019,0.0019 0.0021,0.0031 0.0038,0.02304 0.0021,0.02617 0.0021,0.03152 0.0028,0.0019 0.0057,0.0036 0.0083,0.0057 0.0011,7.94e-4 -5.3e-4,0.0027 -5.3e-4,0.0041 -1.4e-4,0.004 -1.77e-4,0.0079 0,0.01188 2.17e-4,0.0047 5.3e-4,0.0093 0.0011,0.01394 0.0011,-0.0019 0.0024,-0.0034 0.0036,-0.0052 0.01556,-0.02127 0.01849,-0.03873 0.05426,-0.0155 0.0052,0.0034 7.94e-4,0.0122 -0.0011,0.0181 -0.0016,0.0056 -0.0053,0.0105 -0.0083,0.0155 -0.0047,0.0079 -0.0096,0.0159 -0.01447,0.02376 -5.29e-4,0.03206 -2.25e-4,0.06406 -5.29e-4,0.09612 0.01037,-0.03535 0.01823,-0.07165 0.03049,-0.106453 0.01408,-0.03998 0.01725,-0.05032 0.04031,-0.0863 0.0046,-0.0072 0.01061,-0.01347 0.01603,-0.02016 0.0091,-0.01114 0.01849,-0.0223 0.02739,-0.03359 0.0016,-0.0021 0.0024,-0.0053 0.0047,-0.0062 0.0082,-0.0032 0.01765,-0.0088 0.02585,-0.0057 0.0013,5.3e-4 0.0016,0.0027 0.0026,0.0036 0.0019,-0.0016 0.0034,-0.0037 0.0052,-0.0052 -0.02162,0.0013 -0.04261,0.0016 -0.07183,0.0067 -0.06836,0.01199 -0.06963,0.02516 0.03772,-0.02016 0.02913,-0.0066 0.05822,-0.01294 0.08733,-0.01963 0.06305,-0.03691 0.128169,-0.0701 0.193786,-0.10232 0.0066,-0.0032 0.01492,-0.0024 0.02223,-0.0031 0.07279,-0.0055 0.145997,-0.0053 0.218591,0.0031 0.0095,-0.0063 0.01834,-0.01294 0.0279,-0.01913 0.0354,-0.02283 0.07579,-0.03644 0.112654,-0.05684 0.01918,-0.01061 0.03803,-0.02236 0.05685,-0.03359 0.0337,-0.01984 0.133112,-0.08068 0.168982,-0.09353 0.150251,-0.05379 0.195572,-0.03079 0.342614,-0.09457 0.06427,-0.01 0.293576,-0.05267 0.407728,-0.02016 0.0091,-0.0031 0.01828,-0.0062 0.02739,-0.0093 -0.0013,0.0033 -0.0048,0.0087 -0.0078,0.01344 0.0041,0.0016 0.0114,0.0011 0.01497,0.0031 0.0035,0.0019 7.94e-4,0.0021 5.29e-4,0.0031 0.01474,-0.01852 0.02811,-0.03878 0.04806,-0.05064 0.04105,-0.02442 0.086,-0.0412 0.130741,-0.05839 1.88e-4,1.2e-4 -0.0029,0.0031 -0.0021,0.0026 0.0019,-0.0011 0.0029,-0.0021 0.0047,-0.0031 -7.93e-4,1.08e-4 -0.0016,1.98e-4 -0.0021,5.29e-4 -0.0013,-7.94e-4 0.0082,-0.01132 0.01447,-0.01394 0.0048,-0.0019 0.0078,-0.0019 0.01497,-0.0041 -0.0091,0.0057 -0.01757,0.01222 -0.02687,0.01757 0.02461,-0.0095 0.04941,-0.01871 0.07286,-0.03049 0.01384,-0.0069 -0.02058,0.0042 -0.04496,0.01241 0.01966,-0.01252 0.03922,-0.02474 0.05891,-0.03721 0.09949,-0.01355 0.1993,-0.0271 0.298691,-0.04134 0.05022,-0.03901 0.108053,-0.08272 0.147277,-0.09922 0.184666,-0.07774 0.373753,-0.07191 0.566375,-0.03411 7.94e-4,2.38e-4 0.0013,2.22e-4 0.0021,5.29e-4 0.08202,-0.07408 -0.08185,-0.0044 0.463537,-0.09043 0.06332,-0.0284 -0.136676,-0.02225 -0.205155,-0.03359 0.04882,0.0079 0.0079,0.0031 0.116271,-0.03152 0.183319,-0.05854 0.370363,-0.12768 0.566375,-0.11472 0.06945,0.03871 0.0027,0.01212 0.131775,-0.02532 0.05905,-0.01712 0.11987,-0.02719 0.180351,-0.03824 0.01969,-0.0036 -0.180739,0.145182 0.04444,-0.01085 0.06304,-0.02315 0.125286,-0.04845 0.189135,-0.06925 0.09127,-0.0297 0.242173,0.0016 0.330213,0.0083 0.01585,0.0034 0.0317,0.0069 0.04754,0.01034 -0.0088,0.0016 -0.03505,0.0029 -0.02635,0.0052 0.005,0.0013 0.01296,-7.94e-4 0.0186,0 0.06543,-0.03241 0.132498,-0.06209 0.196887,-0.09612 0.115493,-0.06102 0.220149,-0.140488 0.330211,-0.210838 0.06101,-0.039 0.12197,-0.07772 0.182935,-0.11679 -0.01669,-0.02803 -0.03265,-0.05681 -0.05116,-0.0832 0.09322,-0.03941 0.142047,-0.06441 0.175184,-0.0832 -0.0047,-0.0097 -0.01154,-0.01828 -0.0155,-0.02842 -0.014,-0.03578 0.07613,-0.01257 0.113686,-0.02066 0.03961,-0.0085 0.07872,-0.01828 0.118341,-0.02687 0.02257,-0.01892 0.05052,-0.03933 0.08372,-0.05891 0.0026,-0.01013 0.0041,-0.02061 0.0088,-0.02997 0.07739,-0.153987 0.117623,-0.186928 0.24443,-0.2589 0.244345,-0.132662 0.441626,-0.330237 0.668176,-0.488341 0.169063,-0.09402 0.20013,-0.113083 0.407725,-0.216006 0.297299,-0.147407 0.331481,-0.134803 0.652674,-0.363286 0.007,-0.005 0.01326,-0.01093 0.02016,-0.01603 0.0053,-0.0076 0.01265,-0.01376 0.01757,-0.0217 0.05544,-0.07478 0.04578,-0.06182 0.04961,-0.06718 0.02646,-0.223996 0.04799,-0.226261 0.224793,-0.289388 0.04631,-0.0092 0.100425,-0.02098 0.130741,-0.01291 0.0745,-0.154892 0.07865,-0.155591 0.174149,-0.25735 0.171421,-0.177003 -0.08998,0.101373 0.125574,-0.168465 0.03975,-0.04976 0.08456,-0.09514 0.130741,-0.139009 0.01704,-0.01619 0.03915,-0.05451 0.05788,-0.04031 0.02159,0.01635 -0.01974,0.102968 -0.0036,0.08113 0.03333,-0.04543 0.03993,-0.104955 0.05994,-0.157615 0.08644,-0.0627 0.176797,-0.120462 0.259416,-0.1881 0.0069,-0.0056 -0.01532,0.0072 -0.02429,0.01085 -0.0072,0.0065 -0.01334,0.01439 -0.02119,0.02016 -0.006,0.0044 -0.02828,0.0042 -0.02222,0 0.0131,-0.0091 0.02726,-0.01352 0.04341,-0.02016 0.01995,-0.01781 0.03992,-0.0359 0.05891,-0.05478 0.124124,-0.123325 0.09522,-0.09384 0.193786,-0.218591 0.124918,-0.161428 0.186634,-0.260014 0.367419,-0.376206 2.64e-4,-1.93e-4 7.93e-4,-2.38e-4 0.0011,-5.29e-4 0.04259,-0.06615 0.09089,-0.12727 0.156062,-0.178284 0.05788,-0.03892 0.107283,-0.09162 0.159681,-0.138491 v -5.29e-4 c 0.01254,-0.01423 0.02643,-0.02793 0.03721,-0.04289 0.290546,-0.308377 0.640085,-0.553114 0.989086,-0.7953 0.0057,-0.01384 0.0069,-0.01897 0.01394,-0.03307 0.01334,-0.01799 0.02442,-0.03795 0.03979,-0.05426 0.05447,-0.05783 0.03923,-0.03095 0.08217,-0.06615 0.0021,-0.0019 0.0029,-0.0039 0.0052,-0.0062 0.01013,-0.03066 0.01992,-0.06093 0.03514,-0.09457 0.01244,-0.02752 0.04313,-0.04248 0.06253,-0.06563 0.0099,-0.0118 0.02572,-0.04229 0.03411,-0.05788 0.08222,-0.15326 0.19309,-0.213815 0.287319,-0.208772 0.01564,7.93e-4 0.02952,0.0065 0.04393,0.01085 -0.01021,-0.0076 -0.0191,-0.01709 -0.02532,-0.02791 v -5.29e-4 c -0.01527,-0.02662 2.65e-4,-0.045 0.0181,-0.03772 0.0059,0.0024 0.0123,0.0078 0.01757,0.01654 0.007,0.01161 0.0043,0.0093 0.01447,0.01757 0.0021,0.0016 0.0034,0.0037 0.0057,0.0047 7.94e-4,2.65e-4 0.003,-2.65e-4 0.0026,-0.0011 0.0043,0.0011 0.0087,0.0024 0.01291,0.0036 0.0028,0.0026 0.0054,0.0052 0.0083,0.0078 0.0069,0.0064 0.01365,0.01368 0.0217,0.0186 5.29e-4,1.03e-4 7.93e-4,-4.8e-5 0.0011,0 0,0 5.29e-4,5.29e-4 5.29e-4,5.29e-4 0.0048,0.0019 0.0097,0.0039 0.01447,0.0057 0.0021,0.0016 0.0038,0.0034 0.0062,0.0047 2.62e-4,9.8e-5 0.01161,0.003 0.01188,0.0031 0.0026,7.94e-4 0.0052,0.0013 0.0078,0.0021 0.0073,0.0026 0.0094,0.0051 0.01138,0.0078 2.65e-4,5.29e-4 0.0019,0.0011 0.0021,0.0016 0.02048,0.0064 0.01294,0.004 0.02842,0.01551 0.0088,0.0024 0.01648,0.007 0.02429,0.01188 0.0042,0.0031 0.0065,0.0052 0.0098,0.0083 0.0027,7.94e-4 0.0033,-0.0016 0.01035,0.0016 0.0024,0.0011 0.0037,0.004 0.0057,0.0057 l 5.29e-4,-5.29e-4 c 0.0027,7.93e-4 0.0039,0.0039 0.0057,0.0062 0.0049,-5.29e-4 0.01177,-0.0016 0.01551,-5.29e-4 0.0046,0.0013 0.0089,0.003 0.01344,0.0047 0.01966,0.01839 0.0027,0.0026 0.0026,0.0026 -0.0027,-0.0013 -0.01148,-0.0035 -0.0088,-0.0021 0.0046,0.0024 0.0098,0.003 0.01447,0.0052 0.0016,7.94e-4 0.0028,0.0024 0.0041,0.0036 0.02806,0.02439 -0.04421,0.01508 -0.03101,0.02687 0.0013,8.4e-5 0.0029,1.96e-4 0.0041,5.29e-4 0.0011,2.65e-4 -0.0021,9.8e-5 -0.0036,0 0.0013,0.0011 -5.29e-4,0.0013 0.0021,0.0026 0,0 -5.3e-4,0 -5.3e-4,0 -0.0016,-7.94e-4 -0.01085,-0.0084 -0.0041,-0.0036 0,0 -5.29e-4,0 -5.29e-4,0 -5.29e-4,1.61e-4 -0.0011,2.65e-4 -0.0016,5.29e-4 -0.004,7.94e-4 -0.007,0.0019 -0.01138,0.0016 -0.0021,-1.99e-4 -0.01548,-0.0026 -0.01757,-0.0062 -7.94e-4,-0.0013 -0.0011,-0.0031 -0.0016,-0.0047 0,0 -5.29e-4,-5.29e-4 -5.29e-4,-5.29e-4 -2.01e-4,5.29e-4 -0.0031,-0.0021 -0.0047,-0.0031 -0.0019,-0.0013 -0.0039,-0.0026 -0.0057,-0.0041 -0.0077,-0.0019 -0.01318,-0.0054 -0.01963,-0.0098 -0.0089,-0.0065 -0.01982,-0.0079 -0.02842,-0.01497 -0.0042,-0.0038 -0.0076,-0.0057 -0.0078,-0.0067 -0.0011,7.6e-5 -0.0011,2.35e-4 -0.0078,5.29e-4 -0.0075,-0.004 -0.01262,-0.0074 -0.01654,-0.01188 -0.0062,-0.0019 -0.01212,-0.0043 -0.0181,-0.0067 0.03543,0.03791 0.0583,0.09138 0.05943,0.157096 0.280535,0.04289 0.372007,0.411371 -0.02376,0.670758 -0.1823,0.119468 -0.359534,0.246719 -0.53485,0.376722 0.0336,0.136284 0.07103,0.271677 0.0987,0.409279 2.65e-4,0.0019 -0.01974,0.0053 -0.04651,0.02119 -0.05917,0.03502 -0.113149,0.07927 -0.173117,0.11317 -0.190214,0.122986 -0.379447,0.246317 -0.556556,0.387572 -0.04565,-0.0577 -0.0037,-0.01995 -0.05891,0.07493 -0.07301,0.125357 -0.175112,0.200168 -0.297656,0.273367 -0.01043,0.0062 0.01765,-0.01691 0.02635,-0.02532 -0.0016,-0.0065 -7.93e-4,-0.02503 -0.0047,-0.01963 -0.183933,0.253971 0.170066,-0.154067 -0.106455,0.198437 -0.06322,0.08059 -0.153723,0.12876 -0.25218,0.134874 -0.0083,0.0069 -0.01585,0.0145 -0.02376,0.0217 -0.117678,0.10944 -0.237424,0.217395 -0.346749,0.335378 -0.04383,0.0473 -0.08412,0.0978 -0.125058,0.147796 0.08182,-0.04239 0.163499,-0.08555 0.246496,-0.125574 0.02437,-0.01175 0.0603,-0.04855 0.07648,-0.02687 0.0013,0.0016 0.0019,0.0035 0.0031,0.0052 0.0123,-0.0057 0.01445,-0.0083 0.02997,-0.01498 0.0089,0.03673 0.01992,0.0731 0.03049,0.109554 1.88e-4,2.64e-4 2.38e-4,7.93e-4 5.29e-4,0.0011 0.05502,0.0991 0.0965,0.206563 0.147796,0.307993 v 5.3e-4 c 0.0019,0.0039 0.0037,0.008 0.0057,0.01188 -0.02678,0.01122 -0.03059,0.01318 -0.02326,0.0062 -0.08039,0.07479 -0.188206,0.118194 -0.271817,0.186552 -0.265118,0.165089 -0.391901,0.247547 -0.685747,0.411861 -0.01998,0.01116 -0.223986,0.117822 -0.375687,0.197922 -5.3e-4,0.01778 -0.0013,0.03515 -0.0062,0.05219 -0.01685,0.05917 -0.0938,0.09935 -0.144176,0.12971 -0.115258,0.06244 -0.16709,0.206256 -0.287838,0.266649 -0.123227,0.09468 -0.246303,0.189455 -0.372586,0.280086 -0.09502,0.06819 -0.158446,0.104505 -0.251148,0.182935 -0.03544,0.02998 -0.06698,0.06479 -0.100253,0.09715 -0.05694,0.04426 -0.110713,0.09252 -0.170532,0.132807 -0.02956,0.01992 -0.06351,0.03267 -0.09612,0.04703 -0.08102,0.03569 -0.157459,0.06171 -0.233577,0.08682 -0.225232,0.107744 -0.436822,0.240697 -0.68213,0.297138 -0.04883,0.01125 -0.07313,0.01148 -0.09043,0.01085 -0.01304,0.01111 -0.02545,0.02056 -0.04082,0.03721 -0.0029,0.0013 -0.0059,0.0027 -0.0088,0.0041 -0.0021,0.005 -0.0024,0.006 -0.0052,0.01241 -0.159652,0.160946 -0.304265,0.157575 -0.505912,0.176215 -0.07869,0.0073 0.06957,-0.0091 -0.07751,0.0217 -0.01691,0.0123 -0.324028,-0.01103 -0.13901,0.0031 -0.144417,0.08061 -0.306848,0.126193 -0.471289,0.139528 -0.13068,0.04195 -0.274547,0.08291 -0.332279,0.0956 -0.0019,5.29e-4 -0.0047,0.0016 -0.0067,0.0021 -0.156625,0.18609 -0.132223,0.163772 -0.509529,0.363802 -0.531281,0.281652 -0.652052,0.341562 -1.185458,0.492993 -0.05657,0.01606 -0.04641,0.01318 -0.09147,0.02635 H 66.475739 V 28.514683 Z m 27.78797,22.061185 c -7.94e-4,-0.0021 -0.0019,-0.004 -0.0026,-0.0062 -7.94e-4,2.65e-4 -0.0013,0.0016 -0.0021,0.0016 0.0019,0.0013 0.0035,0.0029 0.0047,0.0047 z m -0.113689,-0.10387 c -2.65e-4,-1.13e-4 -7.94e-4,1.17e-4 -0.0011,0 2.64e-4,1.91e-4 7.93e-4,2.65e-4 0.0011,5.3e-4 0,0 0,-5.3e-4 0,-5.3e-4 z m 0.05633,0.03101 c 7.94e-4,0.0024 0.0011,0.0042 0.0026,0.0078 7.94e-4,0.0019 -5.29e-4,-0.0042 -0.0011,-0.0062 -1.51e-4,-7.94e-4 -0.0011,-0.0011 -0.0016,-0.0016 z m -0.03876,0.01085 c -5.29e-4,-0.0032 0.0016,0.0063 0.0036,0.0088 2.65e-4,5.29e-4 5.29e-4,8.2e-5 0.0011,5.29e-4 -0.0019,-0.0027 -0.0041,-0.0045 -0.0047,-0.0093 z m 0.08733,0.01601 c 0,0 -5.29e-4,5.29e-4 -5.29e-4,5.29e-4 5.29e-4,-2.03e-4 0.0016,1.56e-4 0.0021,0 -5.29e-4,-9.8e-5 -0.0011,-5.29e-4 -0.0016,-5.29e-4 z m 0.0011,0.02635 c -0.0024,-0.003 1.96e-4,0.0056 0.0016,0.01138 0.0011,2.17e-4 0.0026,-4.8e-5 0.0031,0 -0.0013,-0.004 -0.0021,-0.0081 -0.0047,-0.01138 z m 0.0186,0.0057 c -0.0036,0.0013 -0.0066,0.0039 -0.0098,0.0062 5.3e-4,-2.32e-4 0.0019,5.3e-4 0.0031,0 0.0021,-0.0019 0.0094,-0.0072 0.0067,-0.0062 z m -0.674378,0.347266 c -0.01175,0.01741 -0.0072,0.0095 -0.0341,0.05116 -5.29e-4,0.01474 2.59e-4,0.0049 0,0.0155 0.0069,-0.0048 0.01376,-0.0097 0.02066,-0.01447 0.0049,-0.01992 0.0055,-0.02651 0.01344,-0.05219 z m -3.233393,3.116088 c -0.0065,0.01246 -0.0072,0.02162 -0.01085,0.03256 0.0028,-0.0021 0.0055,-0.0045 0.0083,-0.0067 7.94e-4,-0.0083 0.0019,-0.0186 0.0026,-0.02585 z m -2.072741,1.468643 c -2.38e-4,5.3e-4 -7.93e-4,5.3e-4 -0.0011,0.0011 -0.0033,0.0062 -0.0013,0.0092 -0.0036,0.02066 0.0011,-0.0074 0.0034,-0.01434 0.0047,-0.0217 z m -3.02514,1.127065 c -0.0073,0.0019 -0.01439,0.0038 -0.02119,0.0067 -0.0031,0.0013 -0.0029,0.01217 0,0.01035 0.01376,-0.0092 0.0109,-0.0096 0.02119,-0.01704 z m -0.659907,0.09663 c 0.0021,0.0011 0.0032,0.0016 0.0067,0.0021 0.0013,-1.8e-4 0.0024,-2.22e-4 0.0036,-5.29e-4 0.0034,-5.29e-4 -0.01342,-0.003 -0.01035,-0.0016 z m -0.671277,0.209807 c -0.0036,2.65e-4 0.0062,0.0034 0.0093,0.0052 0.0041,-0.0013 0.0083,-0.0027 0.01241,-0.0041 -0.0073,-2.65e-4 -0.01677,-0.0016 -0.0217,-0.0011 z m 0.06718,0.0031 c -0.0097,0.01638 -0.01921,0.03249 -0.0088,0.02687 0.0108,-0.0058 0.01844,-0.01632 0.02635,-0.02582 -0.0042,2.44e-4 -0.01027,-5.29e-4 -0.01757,-0.0011 z m -1.597835,0.4377 c -0.0062,0.0065 -0.01384,0.01109 -0.02016,0.01757 0.0013,0.003 0.0034,0.0052 0.0052,0.0078 0.0021,0.02582 5.3e-4,0.05168 0.0021,0.07751 0.0011,0.01855 0.003,0.03678 0.0047,0.05529 0.0013,0.01262 0.0029,0.02508 0.0036,0.03772 2.65e-4,0.0053 2.25e-4,0.0086 5.3e-4,0.01344 0.0064,-0.0079 0.01421,-0.01714 0.02016,-0.02479 5.29e-4,-0.0024 0.0013,-0.0047 0.0016,-0.0072 0.0019,-0.02117 5.3e-4,-0.02564 -0.0026,-0.04289 -1.94e-4,-0.0043 -0.0021,-0.02732 -5.3e-4,-0.03462 0.0038,-0.01746 0.01302,-0.04531 0.03876,-0.04031 0.0081,0.0016 0.01167,0.01167 0.01757,0.01757 2.64e-4,0.0045 7.93e-4,0.009 0.0011,0.01344 0.003,-0.0013 0.0062,-0.0028 0.0093,-0.0041 0.02278,-0.05348 0.008,-0.08804 -0.08113,-0.0863 z m -0.05426,0.0739 c -2.64e-4,5.3e-4 -5.29e-4,0.0011 -0.0011,0.0016 -0.004,0.0048 -0.0085,0.0093 -0.01188,0.01447 -0.02162,0.033 -0.02379,0.04155 -0.03721,0.07958 -0.02408,0.06827 -0.0454,0.137496 -0.06098,0.208256 -4.5e-5,0.0118 -5.29e-4,0.02056 -5.29e-4,0.02842 0.04091,-0.05024 0.07908,-0.09804 0.121441,-0.147794 -9.8e-5,-0.01855 2.65e-4,-0.03684 -0.0011,-0.05839 -7.94e-4,-0.01299 -0.003,-0.02577 -0.0041,-0.03876 -0.0026,-0.02919 -0.0034,-0.05814 -0.0047,-0.08733 z m -0.685747,0.106455 c 0.0066,0.0045 0.0076,0.0056 0.0072,0.01085 -8e-6,2.65e-4 -5.3e-4,0.0024 -5.3e-4,0.0026 1.49e-4,0.0019 0.0013,0.0032 5.3e-4,0.0052 -2.09e-4,5.29e-4 -7.94e-4,0.0011 -0.0011,0.0016 -6.1e-5,2.65e-4 4.5e-5,7.94e-4 0,0.0011 l -5.29e-4,5.3e-4 c -2.17e-4,0.0019 -1.98e-4,0.0035 -0.0011,0.0052 -2.01e-4,5.29e-4 -5.29e-4,0.0016 -5.29e-4,0.0021 -5.3e-4,0.0036 0.003,0.0098 -0.0016,0.01241 -2.62e-4,2.64e-4 -0.0013,0.0013 -0.0016,0.0016 -0.0016,0.0042 -5.3e-4,0.0037 -0.0011,0.0093 -7.94e-4,0.0096 -2.64e-4,0.008 -0.0031,0.01498 -0.0013,0.0024 -0.0026,0.0048 -0.0041,0.0072 -7.94e-4,0.0013 -0.0019,0.0021 -0.0026,0.0031 -0.0052,0.007 -0.0067,0.0092 -0.01085,0.01704 -0.0013,0.0029 -0.0027,0.0058 -0.0041,0.0088 -5.6e-5,5.3e-4 8.4e-5,0.0011 0,0.0016 -1.51e-4,0.0011 -7.94e-4,0.0021 -0.0011,0.0031 -1.56e-4,0.0013 1.4e-5,0.0045 0,0.0057 2.65e-4,0.0037 6.7e-5,0.0076 0,0.01138 -4.2e-5,0.0013 0,0.0024 0,0.0036 1.43e-4,-5.29e-4 7.2e-5,-0.0016 5.3e-4,-0.0016 7.93e-4,1.01e-4 0.0011,0.0016 0.0016,0.0021 v 5.29e-4 c -0.0019,-5.29e-4 -0.0038,-0.0019 -0.0057,-0.0016 -0.0013,2.03e-4 -0.0021,0.0019 -0.0031,0.0026 -0.01199,0.0081 0.0231,-0.0011 0.01188,0.0083 -0.0013,0.0011 -0.0024,0.0028 -0.0041,0.0031 -0.0064,0.0013 -0.0079,-0.0044 -0.01035,-0.0088 -0.0041,0.0073 -0.0049,0.009 -0.0093,0.01757 h -5.29e-4 c -0.0065,0.01302 -0.01942,0.0062 -0.01291,-0.0067 0.0046,-0.0092 0.0049,-0.01043 0.0098,-0.01913 7.94e-4,-0.0013 0.0019,-0.0027 0.0026,-0.0041 0.0011,-0.0021 0.0013,-0.0041 0.0021,-0.0062 v -5.29e-4 c 5.3e-4,-0.0027 0.0016,-0.0052 0.0021,-0.0078 5.29e-4,-0.0016 7.94e-4,-0.0035 0.0016,-0.0052 2.64e-4,-7.94e-4 7.93e-4,-0.0019 0.0011,-0.0026 -4.5e-5,-5.29e-4 2.4e-5,-0.0011 0,-0.0016 1.51e-4,-0.0019 2.51e-4,-0.0038 5.29e-4,-0.0057 7.94e-4,-0.0026 0.0011,-0.0039 0.0021,-0.0062 0.0016,-0.0036 1.98e-4,-0.0081 0.0011,-0.01188 1.1e-5,-0.0042 -5.29e-4,-0.0081 -5.29e-4,-0.01241 3e-6,-0.006 1.88e-4,-0.01206 0,-0.0181 -5.29e-4,-0.0062 -5.29e-4,-0.0086 0.0026,-0.01447 5.29e-4,-0.0011 -5.29e-4,0.0024 -0.0016,0.0031 -7.93e-4,5.29e-4 2.54e-4,-0.0016 5.29e-4,-0.0026 -1.27e-4,-0.0045 -5.5e-5,-0.01119 0,-0.01551 2.2e-5,-0.0013 -5.29e-4,-0.0026 0,-0.0036 0.0088,-0.0146 0.0086,-0.01265 0.0072,-0.0072 -2.65e-4,0.0011 7.94e-4,0.0013 5.29e-4,0.0026 -0.0011,0.0049 -0.0032,0.01087 0.0011,0.0098 -9e-5,-0.0048 -5.3e-4,-0.0097 -5.3e-4,-0.01447 h 5.3e-4 c 0.0011,4e-5 0.0021,5.3e-4 0.0031,5.3e-4 0.0049,7.4e-5 0.0097,5.5e-5 0.01447,-5.3e-4 0.0011,-10e-5 0.0069,-0.0011 0.0078,-5.29e-4 z m -0.0072,0.01498 c -0.0042,2.64e-4 -0.0082,5.29e-4 -0.01241,5.29e-4 5.3e-5,0.005 2.54e-4,0.0076 5.29e-4,0.01291 -0.0013,0.01064 2.47e-4,3.7e-5 -0.0036,0.0098 5.29e-4,-5.29e-4 0.0011,-0.0011 0.0016,-0.0016 1.51e-4,0.0016 5.29e-4,0.0035 5.29e-4,0.0052 2.44e-4,0.0063 3e-6,0.0123 0,0.0186 1.1e-5,0.0021 -5e-6,0.0045 0,0.0067 0.0026,-0.0032 0.0016,-2.01e-4 0.0052,-0.0078 5.29e-4,-0.0013 7.93e-4,-0.0024 0.0011,-0.0036 0.0016,-0.0084 -2.12e-4,-0.0027 5.29e-4,-0.01035 5.29e-4,-0.0045 0.0019,-0.0079 0.0041,-0.01138 -5.29e-4,-0.0033 -5.29e-4,-0.0063 0,-0.0098 0.0011,-0.0034 0.0016,-0.0063 0.0031,-0.0093 z M 51.7501,57.66481 c 2.9e-5,2.65e-4 -1.38e-4,7.94e-4 0,0.0011 5.29e-4,7.94e-4 0.0011,0.0011 0.0021,0.0021 -7.94e-4,-0.0011 -0.0013,-0.0021 -0.0021,-0.0031 z m 1.820042,0.0098 c -0.01236,0.0071 -0.02447,0.0145 -0.03669,0.0217 -0.163285,0.09168 -0.195651,0.107151 -0.240294,0.129709 h 0.383955 c -0.02413,-0.03414 -0.03379,-0.07636 -0.03204,-0.137459 -0.02819,-0.0013 -0.05053,-0.0087 -0.07493,-0.01394 z m -1.291394,0.131257 c 2.65e-4,0.0035 0.0021,0.0075 -5.29e-4,0.0093 -5.29e-4,2.64e-4 -0.0011,1.82e-4 -0.0016,5.29e-4 -0.0026,0.0019 -0.0063,7.93e-4 -0.0093,0.0021 4.5e-5,0.0029 -6e-5,0.0059 0,0.0088 h 0.01138 c -1.72e-4,-0.0026 5.29e-4,-0.0052 0,-0.0078 7e-6,-0.0043 -8e-6,-0.0086 0,-0.01291 z" />
    </clipPath>
    <marker
       style="overflow:visible"
       id="marker7326-8"
       refX="0"
       refY="0"
       orient="auto"
       inkscape:stockid="Arrow2Mstart"
       inkscape:isstock="true">
      <path
         transform="scale(0.6)"
         d="M 8.7185878,4.0337352 -2.2072895,0.01601326 8.7185884,-4.0017078 c -1.7454984,2.3720609 -1.7354408,5.6174519 -6e-7,8.035443 z"
         style="fill:#000000;fill-opacity:1;fill-rule:evenodd;stroke:#000000;stroke-width:0.625;stroke-linejoin:round;stroke-opacity:1"
         id="path7324-5" />
    </marker>
    <marker
       style="overflow:visible"
       id="marker4833-2"
       refX="0"
       refY="0"
       orient="auto"
       inkscape:stockid="Arrow2Mstart"
       inkscape:isstock="true"
       inkscape:collect="always">
      <path
         transform="scale(0.6)"
         d="M 8.7185878,4.0337352 -2.2072895,0.01601326 8.7185884,-4.0017078 c -1.7454984,2.3720609 -1.7354408,5.6174519 -6e-7,8.035443 z"
         style="fill:#000000;fill-opacity:1;fill-rule:evenodd;stroke:#000000;stroke-width:0.625;stroke-linejoin:round;stroke-opacity:1"
         id="path4831-5" />
    </marker>
  </defs>
  <sodipodi:namedview
     id="base"
     pagecolor="#ffffff"
     bordercolor="#666666"
     borderopacity="1.0"
     inkscape:pageopacity="0.0"
     inkscape:pageshadow="2"
     inkscape:zoom="1.4142136"
     inkscape:cx="124.37444"
     inkscape:cy="45.177407"
     inkscape:document-units="mm"
     inkscape:current-layer="layer1"
     inkscape:document-rotation="0"
     showgrid="false"
     units="mm"
     width="460pt"
     inkscape:window-width="1267"
     inkscape:window-height="729"
     inkscape:window-x="83"
     inkscape:window-y="0"
     inkscape:window-maximized="0"
     inkscape:pagecheckerboard="false"
     borderlayer="false"
     fit-margin-top="0"
     fit-margin-left="0"
     fit-margin-right="0"
     fit-margin-bottom="0"
     inkscape:lockguides="false"
     showguides="true"
     gridtolerance="10000"
     objecttolerance="2.5" />
  <metadata
     id="metadata5">
    <rdf:RDF>
      <cc:Work
         rdf:about="">
        <dc:format>image/svg+xml</dc:format>
        <dc:type
           rdf:resource="http://purl.org/dc/dcmitype/StillImage" />
        <dc:title></dc:title>
      </cc:Work>
    </rdf:RDF>
  </metadata>
  <g
     inkscape:label="Layer 1"
     inkscape:groupmode="layer"
     id="layer1"
     transform="translate(-14.150335,-29.350244)">
    <path
       style="display:none;fill:none;stroke:#000000;stroke-width:0.264583px;stroke-linecap:butt;stroke-linejoin:miter;stroke-opacity:1;marker-start:url(#Arrow2Mstart)"
       d="M 42.840808,74.874537 V 14.449552 h 0.265023"
       id="path1563" />
    <g
       id="g7228">
      <path
         style="fill:none;stroke:#000000;stroke-width:0.296007px;stroke-linecap:butt;stroke-linejoin:miter;stroke-opacity:1;marker-start:url(#marker1609)"
         d="M 51.585926,5.9488929 V 73.74379 80.584397"
         id="path1605"
         clip-path="url(#clipPath6293)"
         transform="matrix(1,0,0,0.68011343,-30.869631,25.777866)"
         sodipodi:nodetypes="ccc" />
      <path
         style="fill:none;stroke:#000000;stroke-width:0.297426px;stroke-linecap:butt;stroke-linejoin:miter;stroke-opacity:1;marker-start:url(#marker1609-7)"
         d="M 89.50296,73.756996 H 14.150335"
         id="path1605-7" />
    </g>
    <text
       xml:space="preserve"
       style="font-style:normal;font-weight:normal;font-size:3.52778px;line-height:1.25;font-family:sans-serif;fill:#000000;fill-opacity:1;stroke:none;stroke-width:0.264583"
       x="16.357925"
       y="77.377098"
       id="text1752"><tspan
         sodipodi:role="line"
         id="tspan1750"
         x="16.357925"
         y="77.377098"
         style="font-size:3.52778px;stroke-width:0.264583">\(O\)</tspan></text>
    <text
       xml:space="preserve"
       style="font-style:normal;font-weight:normal;font-size:4.23333px;line-height:1.25;font-family:sans-serif;fill:#000000;fill-opacity:1;stroke:none;stroke-width:0.264583"
       x="87.298637"
       y="77.465759"
       id="text1756"><tspan
         sodipodi:role="line"
         id="tspan1754"
         x="87.298637"
         y="77.465759"
         style="font-size:3.52778px;stroke-width:0.264583">\(x\)</tspan></text>
    <text
       xml:space="preserve"
       style="font-style:normal;font-weight:normal;font-size:4.23333px;line-height:1.25;font-family:sans-serif;fill:#000000;fill-opacity:1;stroke:none;stroke-width:0.264583"
       x="17.36821"
       y="32.414097"
       id="text1756-8"><tspan
         sodipodi:role="line"
         x="17.36821"
         y="32.414097"
         style="font-size:3.52777px;stroke-width:0.264583"
         id="tspan1776">\(y\)</tspan></text>
    <rect
       style="font-variation-settings:normal;opacity:1;mix-blend-mode:normal;vector-effect:none;fill:#fffefe;fill-opacity:1;stroke:#000000;stroke-width:0.264999;stroke-linecap:butt;stroke-linejoin:miter;stroke-miterlimit:4;stroke-dasharray:0.264999, 0.264999;stroke-dashoffset:0;stroke-opacity:0;paint-order:stroke fill markers;stop-color:#000000;stop-opacity:1"
       id="rect6808"
       width="0.52363127"
       height="0.10012301"
       x="57.44495"
       y="-51.834568"
       transform="rotate(90)" />
    <path
       style="fill:none;stroke:#000000;stroke-width:0.264583px;stroke-linecap:butt;stroke-linejoin:miter;stroke-opacity:1;marker-start:url(#marker7326)"
       d="M 29.471455,40.553122 20.678288,73.854906 29.471455,40.553122"
       id="path7308" />
    <path
       style="mix-blend-mode:overlay;fill:none;stroke:#000000;stroke-width:0.264583;stroke-linecap:butt;stroke-linejoin:miter;stroke-miterlimit:4;stroke-dasharray:none;stroke-dashoffset:0;stroke-opacity:1;marker-start:url(#marker4833)"
       d="m 58.657288,63.003764 -37.979,10.851142 c 0,0 38.442021,-10.983434 37.979,-10.851142 z"
       id="path7316"
       sodipodi:nodetypes="ccc" />
    <path
       style="fill:none;stroke:#000000;stroke-width:0.261902;stroke-linecap:butt;stroke-linejoin:miter;stroke-miterlimit:4;stroke-dasharray:0.261902, 0.261902;stroke-dashoffset:0;stroke-opacity:1;marker-start:url(#marker7326-8)"
       d="M 67.734234,29.931897 58.936625,62.872846 67.734234,29.931897"
       id="path7308-8"
       sodipodi:nodetypes="ccc" />
    <path
       style="fill:none;stroke:#000000;stroke-width:0.264308;stroke-linecap:butt;stroke-linejoin:miter;stroke-miterlimit:4;stroke-dasharray:0.264308, 0.264308;stroke-dashoffset:0;stroke-opacity:1;marker-start:url(#marker4833-2)"
       d="m 67.415777,29.640379 -37.9395,10.694353 z"
       id="path7316-3"
       sodipodi:nodetypes="ccc" />
    <text
       xml:space="preserve"
       style="font-size:3.52777px;line-height:1.25;font-family:sans-serif;stroke-width:0.264583"
       x="47.378242"
       y="70.045479"
       id="text7938"><tspan
         sodipodi:role="line"
         id="tspan7936"
         x="47.378242"
         y="70.045479"
         style="stroke-width:0.264583">\(\mathbf{u}\)</tspan></text>
    <text
       xml:space="preserve"
       style="font-size:3.52777px;line-height:1.25;font-family:sans-serif;stroke-width:0.264583"
       x="26.234272"
       y="59.08683"
       id="text7942"><tspan
         sodipodi:role="line"
         id="tspan7940"
         x="26.234272"
         y="59.08683"
         style="stroke-width:0.264583">\(\mathbf{v}\)</tspan></text>
    <text
       xml:space="preserve"
       style="font-size:3.52777px;line-height:1.25;font-family:sans-serif;stroke-width:0.264583"
       x="45.317413"
       y="38.627934"
       id="text7938-5"><tspan
         sodipodi:role="line"
         id="tspan7936-8"
         x="45.317413"
         y="38.627934"
         style="stroke-width:0.264583">\(\mathbf{u}\)</tspan></text>
    <text
       xml:space="preserve"
       style="font-size:3.52777px;line-height:1.25;font-family:sans-serif;stroke-width:0.264583"
       x="64.487915"
       y="46.73761"
       id="text7942-5"><tspan
         sodipodi:role="line"
         id="tspan7940-0"
         x="64.487915"
         y="46.73761"
         style="stroke-width:0.264583">\(\mathbf{v}\)</tspan></text>
    <text
       xml:space="preserve"
       style="font-size:3.52777px;line-height:1.25;font-family:sans-serif;stroke-width:0.264583"
       x="46.323307"
       y="52.240284"
       id="text7938-7"><tspan
         sodipodi:role="line"
         id="tspan7936-4"
         x="46.323307"
         y="52.240284"
         style="stroke-width:0.264583">\(\mathbf{u}+\mathbf{v}\)</tspan></text>
    <path
       style="fill:none;stroke:#000000;stroke-width:0.263769px;stroke-linecap:butt;stroke-linejoin:miter;stroke-opacity:1;marker-start:url(#marker7990)"
       d="M 67.542801,29.802042 20.724714,73.761593"
       id="path9028"
       sodipodi:nodetypes="cc" />
  </g>
</svg>
